<?xml version="1.0" encoding="utf-8"?>
<!-- Generator: Adobe Illustrator 28.1.0, SVG Export Plug-In . SVG Version: 6.00 Build 0)  -->
<svg version="1.1" xmlns="http://www.w3.org/2000/svg" xmlns:xlink="http://www.w3.org/1999/xlink" x="0px" y="0px"
	 viewBox="0 0 3872.98 3872.98" style="enable-background:new 0 0 3872.98 3872.98;" xml:space="preserve">
<style type="text/css">
	.st0{fill:url(#SVGID_1_);stroke:#1D1E1C;stroke-width:11;stroke-miterlimit:10;}
	.st1{fill-rule:evenodd;clip-rule:evenodd;fill:#1D1D1B;}
	.st2{fill-rule:evenodd;clip-rule:evenodd;fill:#354093;}
	.st3{fill-rule:evenodd;clip-rule:evenodd;fill:#333333;}
	.st4{fill-rule:evenodd;clip-rule:evenodd;fill:#EF7900;}
	.st5{fill-rule:evenodd;clip-rule:evenodd;fill:#1987C9;}
	.st6{fill-rule:evenodd;clip-rule:evenodd;fill:#EEE423;}
	.st7{fill-rule:evenodd;clip-rule:evenodd;fill:#E0760D;}
	.st8{fill-rule:evenodd;clip-rule:evenodd;fill:#F07E1E;}
	.st9{fill-rule:evenodd;clip-rule:evenodd;fill:#FF3131;}
	.st10{fill-rule:evenodd;clip-rule:evenodd;fill:#FFA721;}
	.st11{fill-rule:evenodd;clip-rule:evenodd;fill:#FFE4AF;}
</style>
<g id="Master_Layer_2">
</g>
<g id="Layer_1">
	<linearGradient id="SVGID_1_" gradientUnits="userSpaceOnUse" x1="34.0615" y1="1936.4871" x2="3753.4331" y2="1936.4871">
		<stop  offset="0" style="stop-color:#FCEA33"/>
		<stop  offset="0.068" style="stop-color:#FCEA27"/>
		<stop  offset="0.171" style="stop-color:#FDEA1C"/>
		<stop  offset="0.2809" style="stop-color:#FDEA18"/>
		<stop  offset="0.6011" style="stop-color:#F08E33"/>
		<stop  offset="0.8876" style="stop-color:#E86031"/>
		<stop  offset="1" style="stop-color:#E3322E"/>
	</linearGradient>
	<circle class="st0" cx="1936.49" cy="1936.49" r="1859.69"/>
	<path class="st1" d="M979.86,2010.32v-306.6c-69.38-56.81-111.15-142.37-111.15-234.41v-195.07c0-68.45,52.62-124.62,119.62-130.25
		V821.6c0-122.02,99.26-221.28,221.28-221.28h1647.83c122.02,0,221.28,99.26,221.28,221.28v322.41
		c67,5.62,119.61,61.79,119.61,130.25v195.06c0,92.09-41.88,177.68-111.34,234.48v306.57c106.85,22.14,187.38,116.99,187.38,230.32
		c0,93.98-55.39,175.52-135.53,213.1v688.17c0,72.1-58.43,130.7-130.53,130.7H1058.53c-72.21,0-130.71-58.51-130.71-130.7v-688.24
		c-80.12-37.6-135.55-119.08-135.55-213.02C792.27,2127.3,872.91,2032.39,979.86,2010.32L979.86,2010.32z M2817.29,970.75
		c-8.41,1.66-17.24,2.54-26.42,2.54h-10.09v170.25h36.5V970.75L2817.29,970.75z M1249.75,970.73v172.81c12.11,0,24.2,0,36.31,0
		l0.01-170.25h-10.1C1267.05,973.29,1258.27,972.42,1249.75,970.73L1249.75,970.73z M1547.5,1143.54c8.67,0,17.35,0,26.01,0V972.4
		c-5.11,0.59-10.36,0.89-15.73,0.89h-10.28V1143.54L1547.5,1143.54z M2491.14,1143.54h28.23V973.29h-10.3
		c-6.82,0-13.55-0.5-20.15-1.5c9.38,39.29-0.08,80.11-23.25,110.91c2.13,2.84,4.18,5.78,6.11,8.82
		C2482.25,1108.08,2488.56,1125.77,2491.14,1143.54L2491.14,1143.54z M2033.37,1718.42c-102.85,70.64-241.87,70.65-344.63-0.07
		c-92.08,63.29-213.17,69.96-311.29,19.92v267.21h1311.96v-267.21c-98.16,50.02-219.27,43.41-311.32-19.88
		C2275.26,1789.05,2136.18,1789.08,2033.37,1718.42L2033.37,1718.42z M1225.52,3011.25c-9.21-22.56-14.28-47.22-14.28-73.02V2548.7
		c0-25.75,5.05-50.35,14.21-72.83h-36.21v535.38H1225.52L1225.52,3011.25z M2839.16,3011.25h38.24v-535.38h-38.29
		c10.5,24.27,16.31,51.02,16.31,79.09v377.41C2855.41,2960.39,2849.62,2987.04,2839.16,3011.25L2839.16,3011.25z M1474.83,1404.96
		l-0.04,69.65c-0.01,21.17,21.84,36.06,41.44,36.06c22.79,0,41.56-18.75,41.56-41.56v-64.15H1474.83L1474.83,1404.96z
		 M1819.56,1404.96l-0.03,69.85c-0.01,21.1,21.94,35.85,41.43,35.85c22.79,0,41.55-18.75,41.55-41.56v-64.15H1819.56
		L1819.56,1404.96z M2164.29,1404.96l-0.04,69.77c0,21.13,21.91,35.93,41.43,35.93c22.77,0,41.76-18.72,41.76-41.56v-64.15H2164.29
		L2164.29,1404.96z M2508.87,1404.96v64.48c0,22.95,18.95,41.23,41.76,41.23c22.91,0,41.54-18.65,41.54-41.56v-64.15H2508.87
		L2508.87,1404.96z M1129.94,1404.96v64.15c0,22.91,18.65,41.56,41.55,41.56c22.8,0,41.56-18.75,41.56-41.56v-64.15H1129.94
		L1129.94,1404.96z M2853.6,1404.96v64.36c0,22.97,18.89,41.35,41.76,41.35c22.91,0,41.54-18.65,41.54-41.56v-64.15H2853.6z"/>
	<path class="st2" d="M883.04,2010.32v-306.6c-69.38-56.81-111.15-142.37-111.15-234.41v-195.07c0-68.45,52.62-124.62,119.62-130.25
		V821.6c0-122.02,99.26-221.28,221.28-221.28h1647.83c122.02,0,221.28,99.26,221.28,221.28v322.41
		c67,5.62,119.61,61.79,119.61,130.25v195.06c0,92.09-41.88,177.68-111.34,234.48v306.57c106.85,22.14,187.38,116.99,187.38,230.32
		c0,93.98-55.39,175.52-135.55,213.1v688.17c0,72.1-58.41,130.7-130.51,130.7H961.71c-72.21,0-130.71-58.51-130.71-130.7v-688.24
		c-80.12-37.6-135.56-119.08-135.56-213.02C695.43,2127.3,776.09,2032.39,883.04,2010.32L883.04,2010.32z M2720.47,970.75
		c-8.41,1.66-17.24,2.54-26.42,2.54h-10.11v170.25h36.52V970.75L2720.47,970.75z M1152.92,970.73v172.81c12.1,0,24.21,0,36.31,0
		V973.29h-10.09C1170.23,973.29,1161.45,972.42,1152.92,970.73L1152.92,970.73z M1450.68,1143.54c8.67,0,17.33,0,26.01,0V972.4
		c-5.12,0.59-10.36,0.89-15.74,0.89h-10.27V1143.54L1450.68,1143.54z M2394.32,1143.54h28.21V973.29h-10.28
		c-6.82,0-13.55-0.5-20.15-1.5c9.38,39.29-0.08,80.11-23.26,110.91c2.15,2.84,4.2,5.78,6.13,8.82
		C2385.43,1108.08,2391.72,1125.77,2394.32,1143.54L2394.32,1143.54z M1936.55,1718.42c-102.86,70.64-241.87,70.65-344.64-0.07
		c-92.07,63.29-213.17,69.96-311.28,19.92v267.21h1311.96v-267.21c-98.16,50.02-219.27,43.41-311.32-19.88
		C2178.44,1789.05,2039.36,1789.08,1936.55,1718.42L1936.55,1718.42z M1128.69,3011.25c-9.21-22.56-14.29-47.22-14.29-73.02V2548.7
		c0-25.75,5.06-50.35,14.22-72.83h-36.21v535.38H1128.69L1128.69,3011.25z M2742.34,3011.25h38.24v-535.38h-38.29
		c10.5,24.27,16.31,51.02,16.31,79.09v377.41C2758.59,2960.39,2752.8,2987.04,2742.34,3011.25L2742.34,3011.25z M1378.01,1404.96
		l-0.04,69.65c-0.01,21.17,21.83,36.06,41.44,36.06c22.79,0,41.55-18.75,41.55-41.56v-64.15H1378.01L1378.01,1404.96z
		 M1722.74,1404.96l-0.04,69.85c-0.01,21.1,21.95,35.85,41.43,35.85c22.8,0,41.55-18.75,41.55-41.56v-64.15H1722.74L1722.74,1404.96
		z M2067.47,1404.96l-0.04,69.77c0,21.13,21.91,35.93,41.43,35.93c22.77,0,41.76-18.72,41.76-41.56v-64.15H2067.47L2067.47,1404.96z
		 M2412.05,1404.96v64.48c0,22.95,18.95,41.23,41.76,41.23c22.89,0,41.55-18.65,41.55-41.56v-64.15H2412.05L2412.05,1404.96z
		 M1033.11,1404.96v64.15c0,22.91,18.65,41.56,41.55,41.56c22.8,0,41.56-18.75,41.56-41.56v-64.15H1033.11L1033.11,1404.96z
		 M2756.78,1404.96v64.36c0,22.97,18.89,41.35,41.76,41.35c22.91,0,41.54-18.65,41.54-41.56v-64.15H2756.78z"/>
	<path class="st3" d="M979.86,2102.3v-450.06c-66.01-34.43-111.15-103.55-111.15-182.92v-195.07c0-18.75,15.14-33.88,33.89-33.88
		h99.42c-8.75-17.02-13.69-36.29-13.69-56.68V821.6c0-68.58,55.88-124.46,124.46-124.46h1647.83c68.57,0,124.46,55.88,124.46,124.46
		v362.09c-0.06,20.39-5.02,39.66-13.79,56.68h99.52c18.75,0,33.88,15.13,33.88,33.89v195.06c0,79.39-45.25,148.51-111.34,182.93
		v450.04h49.01c76.24,0,138.37,62.13,138.37,138.39c0,75.35-60.51,136.93-135.55,138.35v762.92c0.2,18.75-15.13,33.88-33.68,33.88
		H961.71c-18.76,0-33.89-15.13-33.89-33.88v-762.92c-74.95-1.52-135.55-63.06-135.55-138.35c0-76.25,62.13-138.39,138.38-138.39
		H979.86L979.86,2102.3z M1936.6,1240.37h824.32c31.12-0.17,56.38-25.51,56.38-56.68V821.6c0-31.26-25.41-56.67-56.67-56.67H1112.79
		c-31.26,0-56.68,25.41-56.68,56.67v362.09c0,31.26,25.42,56.68,56.68,56.68C1387.21,1240.38,1662.35,1242.16,1936.6,1240.37
		L1936.6,1240.37z M1319.95,1196.79c18.76,0,33.89-15.33,33.89-33.88V876.47h107.1c43.76,0,43.75-67.77,0-67.77h-281.79
		c-43.75,0-43.75,67.77,0,67.77h106.92l-0.01,286.44C1286.06,1181.67,1301.19,1196.79,1319.95,1196.79L1319.95,1196.79z
		 M1607.4,1196.79c18.76,0,33.88-15.33,33.89-33.88V842.58c0-43.74-67.78-43.74-67.78,0v320.34
		C1573.51,1181.67,1588.64,1196.79,1607.4,1196.79L1607.4,1196.79z M1754.05,1196.79c18.56,0,33.88-15.33,33.89-33.88v-82.71
		l116.19,107.52c31.34,29.19,78.7-19.34,46-49.62l-146.27-135.35l146.27-135.36c32.03-29.67-13.96-79.28-46-49.61l-116.19,107.51
		v-82.71c0-43.74-67.78-43.74-67.78,0v320.34C1720.16,1181.67,1735.29,1196.79,1754.05,1196.79L1754.05,1196.79z M2039.68,1162.91
		c0,18.75,15.13,33.88,33.88,33.88h192.24c43.75,0,43.75-67.77,0-67.77h-158.34v-92.39h158.34c43.75,0,43.75-67.77,0-67.77
		l-158.34-0.01v-92.38h158.34c43.75,0,43.75-67.77,0-67.77h-192.24c-18.75,0-33.88,15.13-33.88,33.88V1162.91L2039.68,1162.91z
		 M2553.25,1196.79c18.75,0,33.88-15.33,33.88-33.88V876.47h106.93c43.73,0,43.73-67.77,0-67.77h-281.81
		c-43.75,0-43.75,67.77,0,67.77h107.12v286.44C2519.37,1181.67,2534.5,1196.79,2553.25,1196.79L2553.25,1196.79z M2825.57,2102.3
		v-428.63c-22.42,2.96-46.43,2.15-68.38-2.32v430.96H2825.57L2825.57,2102.3z M2689.41,2102.3v-458.03
		c-25.33-15.82-46.98-36.98-63.37-61.89c-81.1,122.99-263.69,123.1-344.73,0c-81.08,122.97-263.65,123.11-344.7,0.05
		c-81.23,123-263.66,123.01-344.63-0.16c-81.15,123.13-263.66,123.24-344.7,0.05c-16.43,24.93-38.12,46.12-63.47,61.95v458.03
		H2689.41L2689.41,2102.3z M1116.02,2102.3v-430.96c-21.95,4.46-45.97,5.29-68.38,2.32v428.63H1116.02L1116.02,2102.3z
		 M930.64,2169.87c-92.57,0-92.57,141.2,0,141.2l2011.72,0.02c92.55,0,92.55-141.2,0-141.2L930.64,2169.87L930.64,2169.87z
		 M995.59,3108.07H2877.4v-729.02H995.59V3108.07L995.59,3108.07z M1281.22,1308.14l-0.08,166.42
		c2.87,73.92,63.82,132.93,138.26,132.93c76.25,0,138.38-62.13,138.38-138.38v-160.97H1281.22L1281.22,1308.14z M1625.96,1308.14
		l-0.08,166.62c2.97,73.83,63.89,132.72,138.25,132.72c76.25,0,138.39-62.13,138.39-138.38v-160.97H1625.96L1625.96,1308.14z
		 M1970.69,1308.14l-0.08,166.55c2.94,73.86,63.86,132.8,138.25,132.8c76.25,0,138.58-62.14,138.58-138.38v-160.97H1970.69
		L1970.69,1308.14z M2315.23,1308.14v161.3c0.18,76.3,62.23,138.05,138.58,138.05c76.45,0,138.37-62.14,138.37-138.38v-160.97
		H2315.23L2315.23,1308.14z M1651.78,3035.05c24.85,0,47.53-9.46,64.68-24.94c18.02,15.52,41.47,24.94,67.04,24.94h775.4
		c56.67,0,102.87-46,102.87-102.67v-377.41c0-56.69-46.19-102.89-102.87-102.89h-775.4c-25.6,0-49.06,9.42-67.1,24.98
		c-17.19-15.5-39.95-24.98-64.83-24.98h-343.52c-53.45,0-96.82,43.38-96.82,96.62v389.53c0,53.44,43.56,96.82,96.82,96.82H1651.78
		L1651.78,3035.05z M1308.05,2519.66c-15.94,0-29.05,12.9-29.05,29.04v389.73c0,15.94,12.91,29.04,29.05,29.04h343.52
		c20.46,0,29.15-17.24,29.05-35.3V2548.7c0-15.94-12.9-29.04-29.05-29.04H1308.05L1308.05,2519.66z M1783.5,2519.86
		c-19.37,0-35.1,15.54-35.1,34.89v377.41c0,19.38,15.74,35.1,35.1,35.1h775.4c19.36,0,35.08-15.74,35.08-35.1v-377.22
		c0-19.36-15.72-35.08-35.08-35.08H1783.5L1783.5,2519.86z M1588.23,2656.21c43.85,0,44.09-67.78,0.21-67.78h-216.85
		c-43.75,0-43.75,67.78,0,67.78H1588.23L1588.23,2656.21z M1588.23,2777.44c43.85,0,44.09-67.76,0.21-67.76h-216.85
		c-43.75,0-43.75,67.76,0,67.76H1588.23L1588.23,2777.44z M1588.23,2898.47c43.85,0,44.08-67.76,0.21-67.76l-216.85-0.02
		c-43.75,0-43.75,67.78,0,67.78H1588.23L1588.23,2898.47z M2494.35,2655.21c43.75,0,43.75-67.78,0-67.78h-646.29
		c-43.75,0-43.75,67.78,0,67.78H2494.35L2494.35,2655.21z M2494.35,2777.44c43.75,0,43.75-67.76,0-67.76h-646.29
		c-43.75,0-43.75,67.76,0,67.76H2494.35L2494.35,2777.44z M2494.35,2899.7c43.75,0,43.75-67.78,0-67.78h-646.29
		c-43.75,0-43.75,67.78,0,67.78H2494.35L2494.35,2899.7z M936.28,1308.14v160.97c0,76.45,62.13,138.38,138.38,138.38
		c76.25,0,138.38-62.13,138.38-138.38v-160.97H936.28L936.28,1308.14z M2659.96,1308.14v161.18
		c0.12,76.35,62.19,138.17,138.58,138.17c76.45,0,138.37-62.13,138.37-138.38v-160.97H2659.96z"/>
	<path class="st4" d="M2661.77,2554.96v377.41c0,56.67-46.19,102.67-102.87,102.67h-775.4c-25.57,0-49.01-9.42-67.04-24.94
		c-17.15,15.48-39.83,24.94-64.68,24.94h-343.73c-53.26,0-96.82-43.38-96.82-96.82V2548.7c0-53.25,43.37-96.62,96.82-96.62h343.52
		c24.88,0,47.64,9.48,64.83,24.98c18.03-15.56,41.5-24.98,67.1-24.98h775.4C2615.58,2452.07,2661.77,2498.27,2661.77,2554.96
		L2661.77,2554.96z M2877.4,2379.05H995.59v729.02H2877.4V2379.05z"/>
	<path class="st5" d="M2593.99,2932.16v-377.22c0-19.36-15.72-35.08-35.08-35.08h-775.4c-19.37,0-35.1,15.54-35.1,34.89v377.41
		c0,19.38,15.74,35.1,35.1,35.1h775.4C2578.27,2967.26,2593.99,2951.52,2593.99,2932.16L2593.99,2932.16z M2494.35,2655.21h-646.29
		c-43.75,0-43.75-67.78,0-67.78h646.29C2538.1,2587.43,2538.1,2655.21,2494.35,2655.21L2494.35,2655.21z M2494.35,2709.68
		c43.75,0,43.75,67.76,0,67.76h-646.29c-43.75,0-43.75-67.76,0-67.76H2494.35L2494.35,2709.68z M1848.05,2831.91h646.29
		c43.75,0,43.75,67.78,0,67.78h-646.29C1804.3,2899.7,1804.3,2831.91,1848.05,2831.91z"/>
	<path class="st6" d="M1680.62,2932.16V2548.7c0-15.94-12.9-29.04-29.05-29.04h-343.52c-15.94,0-29.05,12.9-29.05,29.04v389.73
		c0,15.94,12.91,29.04,29.05,29.04h343.52C1672.03,2967.46,1680.73,2950.22,1680.62,2932.16L1680.62,2932.16z M1588.23,2656.21
		h-216.64c-43.75,0-43.75-67.78,0-67.78h216.85C1632.32,2588.43,1632.08,2656.21,1588.23,2656.21L1588.23,2656.21z M1588.44,2709.68
		c43.88,0,43.64,67.76-0.21,67.76h-216.64c-43.75,0-43.75-67.76,0-67.76H1588.44L1588.44,2709.68z M1371.59,2830.69l216.85,0.02
		c43.87,0,43.64,67.76-0.21,67.76h-216.64C1327.84,2898.47,1327.84,2830.69,1371.59,2830.69z"/>
	<path class="st7" d="M1116.02,2102.3v-430.96c-21.95,4.46-45.97,5.29-68.38,2.32v428.63H1116.02z"/>
	<path class="st8" d="M2757.19,1671.34v430.96h68.38v-428.63C2803.15,1676.63,2779.14,1675.81,2757.19,1671.34z"/>
	<path class="st9" d="M2659.96,1469.32c0.12,76.35,62.19,138.17,138.58,138.17c76.45,0,138.37-62.13,138.37-138.38v-160.97h-276.95
		V1469.32z"/>
	<path class="st10" d="M2453.81,1607.49c76.45,0,138.37-62.14,138.37-138.38v-160.97h-276.95v161.3
		C2315.4,1545.74,2377.46,1607.49,2453.81,1607.49z"/>
	<path class="st9" d="M2108.86,1607.49c76.25,0,138.58-62.14,138.58-138.38v-160.97h-276.75l-0.08,166.55
		C1973.55,1548.55,2034.47,1607.49,2108.86,1607.49z"/>
	<path class="st10" d="M1764.13,1607.49c76.25,0,138.39-62.13,138.39-138.38v-160.97h-276.55l-0.08,166.62
		C1628.85,1548.6,1689.77,1607.49,1764.13,1607.49z"/>
	<path class="st9" d="M1419.4,1607.49c76.25,0,138.38-62.13,138.38-138.38v-160.97h-276.55l-0.08,166.42
		C1284.01,1548.48,1344.97,1607.49,1419.4,1607.49z"/>
	<path class="st10" d="M1074.66,1607.49c76.25,0,138.38-62.13,138.38-138.38v-160.97H936.28v160.97
		C936.28,1545.57,998.42,1607.49,1074.66,1607.49z"/>
	<path class="st11" d="M1112.79,1240.37c274.42,0.01,549.56,1.79,823.81,0h824.32c31.12-0.17,56.38-25.51,56.38-56.68V821.6
		c0-31.26-25.41-56.67-56.67-56.67H1112.79c-31.26,0-56.68,25.41-56.68,56.67v362.09
		C1056.1,1214.95,1081.53,1240.37,1112.79,1240.37L1112.79,1240.37z M1319.95,1196.79c-18.76,0-33.89-15.13-33.89-33.88l0.01-286.44
		h-106.92c-43.75,0-43.75-67.77,0-67.77h281.79c43.75,0,43.76,67.77,0,67.77h-107.1v286.44
		C1353.84,1181.47,1338.72,1196.79,1319.95,1196.79L1319.95,1196.79z M1607.4,1196.79c-18.76,0-33.89-15.13-33.89-33.88V842.58
		c0-43.74,67.78-43.74,67.78,0v320.34C1641.28,1181.47,1626.16,1196.79,1607.4,1196.79L1607.4,1196.79z M1754.05,1196.79
		c-18.76,0-33.89-15.13-33.89-33.88V842.58c0-43.74,67.78-43.74,67.78,0v82.71l116.19-107.51c32.04-29.67,78.03,19.95,46,49.61
		l-146.27,135.36l146.27,135.35c32.7,30.28-14.66,78.82-46,49.62l-116.19-107.52v82.71
		C1787.93,1181.47,1772.61,1196.79,1754.05,1196.79L1754.05,1196.79z M2039.68,1162.91V842.58c0-18.75,15.13-33.88,33.88-33.88
		h192.24c43.75,0,43.75,67.77,0,67.77h-158.34v92.38l158.34,0.01c43.75,0,43.75,67.77,0,67.77h-158.34v92.39h158.34
		c43.75,0,43.75,67.77,0,67.77h-192.24C2054.8,1196.79,2039.68,1181.67,2039.68,1162.91L2039.68,1162.91z M2553.25,1196.79
		c-18.75,0-33.88-15.13-33.88-33.88V876.47h-107.12c-43.75,0-43.75-67.77,0-67.77h281.81c43.73,0,43.73,67.77,0,67.77h-106.93
		v286.44C2587.13,1181.47,2572,1196.79,2553.25,1196.79z"/>
</g>
</svg>
