<?xml version="1.0" encoding="utf-8"?>
<!-- Generator: Adobe Illustrator 28.1.0, SVG Export Plug-In . SVG Version: 6.00 Build 0)  -->
<svg version="1.1" id="Camada_1" xmlns="http://www.w3.org/2000/svg" xmlns:xlink="http://www.w3.org/1999/xlink" x="0px" y="0px"
	 viewBox="0 0 502.37 502.37" style="enable-background:new 0 0 502.37 502.37;" xml:space="preserve">
<style type="text/css">
	.st0{fill:url(#SVGID_1_);stroke:#1E1E1C;stroke-width:11;stroke-miterlimit:10;}
	.st1{fill:#1E1E1C;}
</style>
<g>
	<linearGradient id="SVGID_1_" gradientUnits="userSpaceOnUse" x1="-0.1471" y1="251.1862" x2="491.2254" y2="251.1862">
		<stop  offset="0" style="stop-color:#FDEB34"/>
		<stop  offset="0.1193" style="stop-color:#FDEB24"/>
		<stop  offset="0.2809" style="stop-color:#FEEB1A"/>
		<stop  offset="0.6011" style="stop-color:#F18F33"/>
		<stop  offset="0.8876" style="stop-color:#E96032"/>
		<stop  offset="1" style="stop-color:#E4332E"/>
	</linearGradient>
	<circle class="st0" cx="251.19" cy="251.19" r="245.69"/>
	<g>
		<path class="st1" d="M101.54,341.83l121.62-94.44l-120.6-91.55c-0.64,1.37-1.02,2.88-1.02,4.49V341.83z"/>
		<path class="st1" d="M112.23,149.64c-0.05,0-0.09,0.01-0.14,0.01L241.65,248c5.61,4.26,13.46,4.26,19.08,0l129.56-98.34
			c-0.05,0-0.09-0.01-0.14-0.01H112.23z"/>
		<path class="st1" d="M400.83,341.83v-181.5c0-1.61-0.38-3.12-1.02-4.49l-120.6,91.55L400.83,341.83z"/>
		<path class="st1" d="M390.14,352.73c1.96,0,3.78-0.57,5.37-1.5l-125.11-97.15l-3.2,2.43c-4.71,3.58-10.36,5.37-16.01,5.37
			c-5.65,0-11.29-1.78-16-5.36l-3.2-2.43l-125.12,97.15c1.58,0.93,3.4,1.5,5.37,1.5H390.14z"/>
	</g>
</g>
</svg>
