<?xml version="1.0" encoding="utf-8"?>
<!-- Generator: Adobe Illustrator 28.4.1, SVG Export Plug-In . SVG Version: 6.00 Build 0)  -->
<svg version="1.1" id="Capa_1" xmlns="http://www.w3.org/2000/svg" xmlns:xlink="http://www.w3.org/1999/xlink" x="0px" y="0px"
	 viewBox="0 0 800 800" style="enable-background:new 0 0 800 800;" xml:space="preserve">
<style type="text/css">
	.st0{fill:url(#SVGID_1_);stroke:#000000;stroke-width:6;stroke-miterlimit:10;}
</style>
<linearGradient id="SVGID_1_" gradientUnits="userSpaceOnUse" x1="36.5002" y1="400" x2="763.4998" y2="400">
	<stop  offset="0" style="stop-color:#FFFFFF"/>
	<stop  offset="0" style="stop-color:#FBDD12"/>
	<stop  offset="1" style="stop-color:#F6A829"/>
</linearGradient>
<path class="st0" d="M486.3,400l270-272.2c9.6-9.7,9.6-25.3,0-35l-51.6-52c-4.6-4.6-10.8-7.2-17.3-7.2c-6.5,0-12.7,2.6-17.3,7.2
	L400,313L130,40.8c-4.6-4.6-10.8-7.2-17.3-7.2c-6.5,0-12.7,2.6-17.3,7.2l-51.6,52c-9.6,9.7-9.6,25.3,0,35l270,272.2l-270,272.2
	c-9.6,9.7-9.6,25.3,0,35l51.6,52c4.6,4.6,10.8,7.2,17.3,7.2s12.7-2.6,17.3-7.2L400,487l270,272.2c4.6,4.6,10.8,7.2,17.3,7.2
	c6.5,0,12.8-2.6,17.3-7.2l51.6-52c9.6-9.7,9.6-25.3,0-35L486.3,400z"/>
</svg>
