<?xml version="1.0" encoding="UTF-8"?>
<svg xmlns="http://www.w3.org/2000/svg" xmlns:xlink="http://www.w3.org/1999/xlink" viewBox="0 0 124.73 60.23">
  <defs>
    <style>
      .cls-1 {
        fill: #fff5c9;
        opacity: .5;
      }

      .cls-1, .cls-2, .cls-3, .cls-4 {
        stroke-width: 0px;
      }

      .cls-1, .cls-3 {
        mix-blend-mode: soft-light;
      }

      .cls-5, .cls-6 {
        stroke: #43413f;
        stroke-linecap: round;
      }

      .cls-5, .cls-6, .cls-7 {
        fill: none;
        stroke-miterlimit: 10;
        stroke-width: 2px;
      }

      .cls-8 {
        font-size: 1.59px;
        letter-spacing: .2em;
      }

      .cls-8, .cls-9 {
        font-family: BebasNeue-Bold, 'BebasNeue Bold';
        font-weight: 700;
      }

      .cls-8, .cls-9, .cls-2 {
        fill: #43413f;
      }

      .cls-9 {
        font-size: 5.41px;
        letter-spacing: .09em;
      }

      .cls-10 {
        isolation: isolate;
      }

      .cls-6 {
        stroke-dasharray: 0 0 6.5 9.75;
      }

      .cls-7 {
        stroke: #fff5c9;
      }

      .cls-11 {
        fill: #fff;
        font-family: Bauhaus93, 'Bauhaus 93';
        font-size: 23.29px;
      }

      .cls-3 {
        fill: #000;
        opacity: .45;
      }

      .cls-4 {
        fill: url(#Gradiente_sem_nome_5);
      }
    </style>
    <linearGradient id="Gradiente_sem_nome_5" data-name="Gradiente sem nome 5" x1="-.41" y1="30.12" x2="123.96" y2="30.12" gradientUnits="userSpaceOnUse">
      <stop offset="0" stop-color="#00e1ff"/>
      <stop offset=".02" stop-color="#00d9f9"/>
      <stop offset=".22" stop-color="#079bcd"/>
      <stop offset=".41" stop-color="#0d68a8"/>
      <stop offset=".59" stop-color="#11408b"/>
      <stop offset=".76" stop-color="#142376"/>
      <stop offset=".9" stop-color="#16126a"/>
      <stop offset="1" stop-color="#170c66"/>
    </linearGradient>
  </defs>
  <g class="cls-10">
    <g id="Camada_1" data-name="Camada 1">
      <path class="cls-4" d="M123.11,57.71c0-.45.36-.81.8-.82v-1.81c-.44-.01-.8-.37-.8-.82s.36-.81.8-.82v-1.81c-.44-.01-.8-.37-.8-.82s.36-.81.8-.82v-1.81c-.44-.01-.8-.37-.8-.82s.36-.81.8-.82v-1.81c-.44-.01-.8-.37-.8-.82s.36-.81.8-.82v-1.81c-.44-.01-.8-.37-.8-.82s.36-.81.8-.82v-1.81c-.44-.01-.8-.37-.8-.82s.36-.81.8-.82v-1.81c-.44-.01-.8-.37-.8-.82s.36-.81.8-.82v-1.81c-.44-.01-.8-.37-.8-.82s.36-.81.8-.82v-1.81c-.44-.01-.8-.37-.8-.82s.36-.81.8-.82v-1.81c-.44-.01-.8-.37-.8-.82s.36-.81.8-.82v-1.81c-.44-.01-.8-.37-.8-.82s.36-.81.8-.82v-1.81c-.44-.01-.8-.37-.8-.82s.36-.81.8-.82v-1.81c-.44-.01-.8-.37-.8-.82s.36-.81.8-.82v-1.81c-.44-.01-.8-.37-.8-.82s.36-.81.8-.82v-1.81c-.44-.01-.8-.37-.8-.82s.36-.81.8-.82v-1.81c-.44-.01-.8-.37-.8-.82s.36-.81.8-.82V0h-1.54s0,0,0,.01c0,.45-.37.82-.82.82s-.82-.37-.82-.82c0,0,0,0,0-.01h-1.81s0,0,0,.01c0,.45-.37.82-.82.82s-.82-.37-.82-.82c0,0,0,0,0-.01h-1.81s0,0,0,.01c0,.45-.37.82-.82.82s-.82-.37-.82-.82c0,0,0,0,0-.01h-1.81s0,0,0,.01c0,.45-.37.82-.82.82s-.82-.37-.82-.82c0,0,0,0,0-.01h-1.81s0,0,0,.01c0,.45-.37.82-.82.82s-.82-.37-.82-.82c0,0,0,0,0-.01h-1.81s0,0,0,.01c0,.45-.37.82-.82.82s-.82-.37-.82-.82c0,0,0,0,0-.01h-1.81s0,0,0,.01c0,.45-.37.82-.82.82s-.82-.37-.82-.82c0,0,0,0,0-.01h-1.81s0,0,0,.01c0,.45-.37.82-.82.82s-.82-.37-.82-.82c0,0,0,0,0-.01h-1.81s0,0,0,.01c0,.45-.37.82-.82.82s-.82-.37-.82-.82c0,0,0,0,0-.01h-1.62c0,.09.01.19.01.28,0,2.23-1.81,4.04-4.04,4.04s-4.04-1.81-4.04-4.04c0-.09,0-.19.01-.28h-1.52s0,0,0,.01c0,.45-.37.82-.82.82s-.82-.37-.82-.82c0,0,0,0,0-.01h-1.81s0,0,0,.01c0,.45-.37.82-.82.82s-.82-.37-.82-.82c0,0,0,0,0-.01h-1.81s0,0,0,.01c0,.45-.37.82-.82.82s-.82-.37-.82-.82c0,0,0,0,0-.01h-1.81s0,0,0,.01c0,.45-.37.82-.82.82s-.82-.37-.82-.82c0,0,0,0,0-.01h-1.81s0,0,0,.01c0,.45-.37.82-.82.82s-.82-.37-.82-.82c0,0,0,0,0-.01h-1.81s0,0,0,.01c0,.45-.37.82-.82.82s-.82-.37-.82-.82c0,0,0,0,0-.01h-1.81s0,0,0,.01c0,.45-.37.82-.82.82s-.82-.37-.82-.82c0,0,0,0,0-.01h-1.81s0,0,0,.01c0,.45-.37.82-.82.82s-.82-.37-.82-.82c0,0,0,0,0-.01h-1.81s0,0,0,.01c0,.45-.37.82-.82.82s-.82-.37-.82-.82c0,0,0,0,0-.01h-1.81s0,0,0,.01c0,.45-.37.82-.82.82s-.82-.37-.82-.82c0,0,0,0,0-.01h-1.81s0,0,0,.01c0,.45-.37.82-.82.82s-.82-.37-.82-.82c0,0,0,0,0-.01h-1.81s0,0,0,.01c0,.45-.37.82-.82.82s-.82-.37-.82-.82c0,0,0,0,0-.01h-1.81s0,0,0,.01c0,.45-.37.82-.82.82s-.82-.37-.82-.82c0,0,0,0,0-.01h-1.81s0,0,0,.01c0,.45-.37.82-.82.82s-.82-.37-.82-.82c0,0,0,0,0-.01h-1.81s0,0,0,.01c0,.45-.37.82-.82.82s-.82-.37-.82-.82c0,0,0,0,0-.01h-1.81s0,0,0,.01c0,.45-.37.82-.82.82s-.82-.37-.82-.82c0,0,0,0,0-.01h-1.81s0,0,0,.01c0,.45-.37.82-.82.82s-.82-.37-.82-.82c0,0,0,0,0-.01h-1.81s0,0,0,.01c0,.45-.37.82-.82.82s-.82-.37-.82-.82c0,0,0,0,0-.01h-1.81s0,0,0,.01c0,.45-.37.82-.82.82s-.82-.37-.82-.82c0,0,0,0,0-.01h-1.81s0,0,0,.01c0,.45-.37.82-.82.82s-.82-.37-.82-.82c0,0,0,0,0-.01h-1.81s0,0,0,.01c0,.45-.37.82-.82.82s-.82-.37-.82-.82c0,0,0,0,0-.01h-1.81s0,0,0,.01c0,.45-.37.82-.82.82s-.82-.37-.82-.82c0,0,0,0,0-.01h-1.81s0,0,0,.01c0,.45-.37.82-.82.82s-.82-.37-.82-.82c0,0,0,0,0-.01h-1.81s0,0,0,.01c0,.45-.37.82-.82.82S.99.46.99.01c0,0,0,0,0-.01h-.99v1.71c.44.02.79.38.79.82s-.35.8-.79.82v1.81c.44.02.79.38.79.82s-.35.8-.79.82v1.81c.44.02.79.38.79.82s-.35.8-.79.82v1.81c.44.02.79.38.79.82s-.35.8-.79.82v1.81c.44.02.79.38.79.82s-.35.8-.79.82v1.81c.44.02.79.38.79.82s-.35.8-.79.82v1.81c.44.02.79.38.79.82s-.35.8-.79.82v1.81c.44.02.79.38.79.82s-.35.8-.79.82v1.81c.44.02.79.38.79.82s-.35.8-.79.82v1.81c.44.02.79.38.79.82s-.35.8-.79.82v1.81c.44.02.79.38.79.82s-.35.8-.79.82v1.81c.44.02.79.38.79.82s-.35.8-.79.82v1.81c.44.02.79.38.79.82s-.35.8-.79.82v1.81c.44.02.79.38.79.82s-.35.8-.79.82v1.81c.44.02.79.38.79.82s-.35.8-.79.82v1.81c.44.02.79.38.79.82s-.35.8-.79.82v1.81c.44.02.79.38.79.82s-.35.8-.79.82v1.71h1s0-.04,0-.06c0-.45.37-.82.82-.82s.82.37.82.82c0,.02,0,.04,0,.06h1.82s0-.04,0-.06c0-.45.37-.82.82-.82s.82.37.82.82c0,.02,0,.04,0,.06h1.82s0-.04,0-.06c0-.45.37-.82.82-.82s.82.37.82.82c0,.02,0,.04,0,.06h1.82s0-.04,0-.06c0-.45.37-.82.82-.82s.82.37.82.82c0,.02,0,.04,0,.06h1.82s0-.04,0-.06c0-.45.37-.82.82-.82s.82.37.82.82c0,.02,0,.04,0,.06h1.82s0-.04,0-.06c0-.45.37-.82.82-.82s.82.37.82.82c0,.02,0,.04,0,.06h1.82s0-.04,0-.06c0-.45.37-.82.82-.82s.82.37.82.82c0,.02,0,.04,0,.06h1.82s0-.04,0-.06c0-.45.37-.82.82-.82s.82.37.82.82c0,.02,0,.04,0,.06h1.82s0-.04,0-.06c0-.45.37-.82.82-.82s.82.37.82.82c0,.02,0,.04,0,.06h1.82s0-.04,0-.06c0-.45.37-.82.82-.82s.82.37.82.82c0,.02,0,.04,0,.06h1.82s0-.04,0-.06c0-.45.37-.82.82-.82s.82.37.82.82c0,.02,0,.04,0,.06h1.82s0-.04,0-.06c0-.45.37-.82.82-.82s.82.37.82.82c0,.02,0,.04,0,.06h1.82s0-.04,0-.06c0-.45.37-.82.82-.82s.82.37.82.82c0,.02,0,.04,0,.06h1.82s0-.04,0-.06c0-.45.37-.82.82-.82s.82.37.82.82c0,.02,0,.04,0,.06h1.82s0-.04,0-.06c0-.45.37-.82.82-.82s.82.37.82.82c0,.02,0,.04,0,.06h1.82s0-.04,0-.06c0-.45.37-.82.82-.82s.82.37.82.82c0,.02,0,.04,0,.06h1.82s0-.04,0-.06c0-.45.37-.82.82-.82s.82.37.82.82c0,.02,0,.04,0,.06h1.82s0-.04,0-.06c0-.45.37-.82.82-.82s.82.37.82.82c0,.02,0,.04,0,.06h1.82s0-.04,0-.06c0-.45.37-.82.82-.82s.82.37.82.82c0,.02,0,.04,0,.06h1.82s0-.04,0-.06c0-.45.37-.82.82-.82s.82.37.82.82c0,.02,0,.04,0,.06h1.82s0-.04,0-.06c0-.45.37-.82.82-.82s.82.37.82.82c0,.02,0,.04,0,.06h1.82s0-.04,0-.06c0-.45.37-.82.82-.82s.82.37.82.82c0,.02,0,.04,0,.06h1.82s0-.04,0-.06c0-.45.37-.82.82-.82s.82.37.82.82c0,.02,0,.04,0,.06h1.82s0-.04,0-.06c0-.45.37-.82.82-.82s.82.37.82.82c0,.02,0,.04,0,.06h1.51s0-.03,0-.05c0-2.23,1.81-4.04,4.04-4.04s4.04,1.81,4.04,4.04c0,.02,0,.03,0,.05h1.62s0-.04,0-.06c0-.45.37-.82.82-.82s.82.37.82.82c0,.02,0,.04,0,.06h1.82s0-.04,0-.06c0-.45.37-.82.82-.82s.82.37.82.82c0,.02,0,.04,0,.06h1.82s0-.04,0-.06c0-.45.37-.82.82-.82s.82.37.82.82c0,.02,0,.04,0,.06h1.82s0-.04,0-.06c0-.45.37-.82.82-.82s.82.37.82.82c0,.02,0,.04,0,.06h1.82s0-.04,0-.06c0-.45.37-.82.82-.82s.82.37.82.82c0,.02,0,.04,0,.06h1.82s0-.04,0-.06c0-.45.37-.82.82-.82s.82.37.82.82c0,.02,0,.04,0,.06h1.82s0-.04,0-.06c0-.45.37-.82.82-.82s.82.37.82.82c0,.02,0,.04,0,.06h1.82s0-.04,0-.06c0-.45.37-.82.82-.82s.82.37.82.82c0,.02,0,.04,0,.06h1.82s0-.04,0-.06c0-.45.37-.82.82-.82s.82.37.82.82c0,.02,0,.04,0,.06h2.37l-.83-1.71c-.44-.01-.8-.37-.8-.82Z"/>
      <ellipse class="cls-1" cx="45.97" cy="30.9" rx="25.91" ry="4.1"/>
      <g>
        <g>
          <rect class="cls-2" x="92.82" y="37.51" width="8.05" height=".79"/>
          <rect class="cls-2" x="91.65" y="38.55" width="9.22" height=".4"/>
          <rect class="cls-2" x="92.82" y="40.06" width="8.05" height=".2"/>
          <rect class="cls-2" x="92.82" y="40.4" width="8.05" height=".2"/>
          <rect class="cls-2" x="92.82" y="40.78" width="8.05" height=".79"/>
          <rect class="cls-2" x="91.65" y="41.76" width="9.22" height=".4"/>
          <rect class="cls-2" x="92.82" y="42.85" width="8.05" height=".2"/>
          <rect class="cls-2" x="92.82" y="43.23" width="8.05" height=".2"/>
          <rect class="cls-2" x="92.82" y="43.62" width="8.05" height=".65"/>
          <rect class="cls-2" x="92.82" y="44.49" width="8.05" height="1.58"/>
          <rect class="cls-2" x="92.82" y="46.81" width="8.05" height="1.58"/>
          <rect class="cls-2" x="91.65" y="48.59" width="9.22" height=".52"/>
          <rect class="cls-2" x="92.82" y="49.29" width="8.05" height=".26"/>
          <rect class="cls-2" x="92.82" y="49.85" width="8.05" height=".26"/>
          <rect class="cls-2" x="92.82" y="50.4" width="8.05" height=".55"/>
          <rect class="cls-2" x="92.82" y="51.42" width="8.05" height=".13"/>
          <rect class="cls-2" x="92.82" y="51.81" width="8.05" height=".46"/>
          <rect class="cls-2" x="91.65" y="52.44" width="9.22" height=".4"/>
          <rect class="cls-2" x="92.82" y="53.18" width="8.05" height=".2"/>
        </g>
        <text class="cls-8" transform="translate(91.09 39.37) rotate(90)"><tspan x="0" y="0">00</tspan></text>
        <text class="cls-8" transform="translate(91.09 49.25) rotate(90)"><tspan x="0" y="0">000</tspan></text>
        <text class="cls-8" transform="translate(91.09 42.83) rotate(90)"><tspan x="0" y="0">00000</tspan></text>
      </g>
      <path class="cls-7" d="M119.77,4.23h-29.54c-.7.66-1.64,1.08-2.68,1.08s-1.98-.41-2.68-1.08H4.05v51.77h81.07c.66-.53,1.51-.85,2.43-.85s1.76.32,2.43.85h29.79V4.23Z"/>
      <g>
        <line class="cls-5" x1="87.3" y1="5.89" x2="87.3" y2="8.89"/>
        <line class="cls-6" x1="87.3" y1="18.65" x2="87.3" y2="46.28"/>
        <line class="cls-5" x1="87.3" y1="51.16" x2="87.3" y2="54.16"/>
      </g>
      <text class="cls-9" transform="translate(103.74 37.66) rotate(90)"><tspan x="0" y="0">0001a</tspan></text>
      <path class="cls-2" d="M107.63,39.38v11.97h-3.9v-11.97h3.9M109.63,37.38h-7.9v15.97h7.9v-15.97h0Z"/>
      <circle class="cls-3" cx="34.33" cy="57.08" r="2.02"/>
      <text class="cls-11" transform="translate(15.52 34.46) scale(1.04 1)"><tspan x="0" y="0">Ingressos</tspan></text>
    </g>
  </g>
</svg>