<?xml version="1.0" encoding="utf-8"?>
<!-- Generator: Adobe Illustrator 28.4.1, SVG Export Plug-In . SVG Version: 6.00 Build 0)  -->
<svg version="1.1" id="PRINT" xmlns="http://www.w3.org/2000/svg" xmlns:xlink="http://www.w3.org/1999/xlink" x="0px" y="0px"
	 viewBox="0 0 595.28 280.63" style="enable-background:new 0 0 595.28 280.63;" xml:space="preserve">
<style type="text/css">
	.st0{fill:url(#SVGID_1_);}
	.st1{opacity:0.5;fill:#FFF5CA;}
	.st2{fill:#444341;}
	.st3{font-family:'BebasNeue-Bold';}
	.st4{font-size:7.835px;}
	.st5{letter-spacing:1;}
	.st6{fill:none;stroke:#FFF5CA;stroke-width:2;stroke-miterlimit:10;}
	.st7{fill:none;stroke:#444341;stroke-width:2;stroke-linecap:round;stroke-miterlimit:10;}
	.st8{fill:none;stroke:#444341;stroke-width:2;stroke-linecap:round;stroke-miterlimit:10;stroke-dasharray:5.9614,8.9421;}
	.st9{font-size:26.7154px;}
	.st10{letter-spacing:2;}
	.st11{opacity:0.45;fill:#020202;}
	.st12{fill:#FFFFFF;}
</style>
<linearGradient id="SVGID_1_" gradientUnits="userSpaceOnUse" x1="-6.6697" y1="141.1609" x2="603.8074" y2="141.1609">
	<stop  offset="0.3911" style="stop-color:#00EDFF"/>
	<stop  offset="0.662" style="stop-color:#17EFFF"/>
	<stop  offset="0.6875" style="stop-color:#32F1FF"/>
	<stop  offset="0.7514" style="stop-color:#6FF5FF"/>
	<stop  offset="0.8128" style="stop-color:#A3F9FF"/>
	<stop  offset="0.8699" style="stop-color:#CBFBFF"/>
	<stop  offset="0.9219" style="stop-color:#E7FDFF"/>
	<stop  offset="0.9669" style="stop-color:#F9FFFF"/>
	<stop  offset="1" style="stop-color:#FFFFFF"/>
</linearGradient>
<path class="st0" d="M603.66,277.5c0-2.2,1.76-3.98,3.94-4.05v-8.95c-2.19-0.06-3.94-1.84-3.94-4.05s1.76-3.98,3.94-4.05v-8.95
	c-2.19-0.06-3.94-1.84-3.94-4.05c0-2.2,1.76-3.98,3.94-4.05v-8.95c-2.19-0.06-3.94-1.84-3.94-4.05c0-2.2,1.76-3.98,3.94-4.05v-8.95
	c-2.19-0.06-3.94-1.84-3.94-4.05c0-2.2,1.76-3.98,3.94-4.05v-8.95c-2.19-0.06-3.94-1.84-3.94-4.05c0-2.2,1.76-3.98,3.94-4.05v-8.95
	c-2.19-0.06-3.94-1.84-3.94-4.05c0-2.2,1.76-3.98,3.94-4.05v-8.95c-2.19-0.06-3.94-1.84-3.94-4.05c0-2.2,1.76-3.98,3.94-4.05v-8.95
	c-2.19-0.06-3.94-1.84-3.94-4.05c0-2.2,1.76-3.98,3.94-4.05v-8.95c-2.19-0.06-3.94-1.84-3.94-4.05c0-2.2,1.76-3.98,3.94-4.05v-8.95
	c-2.19-0.06-3.94-1.84-3.94-4.05c0-2.2,1.76-3.98,3.94-4.05v-8.95c-2.19-0.06-3.94-1.84-3.94-4.05c0-2.2,1.76-3.98,3.94-4.05v-8.95
	c-2.19-0.06-3.94-1.84-3.94-4.05c0-2.2,1.76-3.98,3.94-4.05V60c-2.19-0.06-3.94-1.84-3.94-4.05c0-2.2,1.76-3.98,3.94-4.05v-8.95
	c-2.19-0.06-3.94-1.84-3.94-4.05c0-2.2,1.76-3.98,3.94-4.05v-8.95c-2.19-0.06-3.94-1.84-3.94-4.05c0-2.2,1.76-3.98,3.94-4.05V8.87
	c-2.19-0.06-3.94-1.84-3.94-4.05c0-2.2,1.76-3.98,3.94-4.05v-8.44h-7.59c0,0.02,0.01,0.03,0.01,0.05c0,2.24-1.82,4.06-4.06,4.06
	c-2.24,0-4.06-1.82-4.06-4.06c0-0.02,0.01-0.03,0.01-0.05h-8.94c0,0.02,0.01,0.03,0.01,0.05c0,2.24-1.82,4.06-4.06,4.06
	c-2.24,0-4.06-1.82-4.06-4.06c0-0.02,0.01-0.03,0.01-0.05h-8.94c0,0.02,0.01,0.03,0.01,0.05c0,2.24-1.82,4.06-4.06,4.06
	c-2.24,0-4.06-1.82-4.06-4.06c0-0.02,0.01-0.03,0.01-0.05h-8.94c0,0.02,0.01,0.03,0.01,0.05c0,2.24-1.82,4.06-4.06,4.06
	c-2.24,0-4.06-1.82-4.06-4.06c0-0.02,0.01-0.03,0.01-0.05h-8.94c0,0.02,0.01,0.03,0.01,0.05c0,2.24-1.82,4.06-4.06,4.06
	c-2.24,0-4.06-1.82-4.06-4.06c0-0.02,0.01-0.03,0.01-0.05h-8.94c0,0.02,0.01,0.03,0.01,0.05c0,2.24-1.82,4.06-4.06,4.06
	c-2.24,0-4.06-1.82-4.06-4.06c0-0.02,0.01-0.03,0.01-0.05h-8.94c0,0.02,0.01,0.03,0.01,0.05c0,2.24-1.82,4.06-4.06,4.06
	c-2.24,0-4.06-1.82-4.06-4.06c0-0.02,0.01-0.03,0.01-0.05h-8.94c0,0.02,0.01,0.03,0.01,0.05c0,2.24-1.82,4.06-4.06,4.06
	c-2.24,0-4.06-1.82-4.06-4.06c0-0.02,0.01-0.03,0.01-0.05h-8.94c0,0.02,0.01,0.03,0.01,0.05c0,2.24-1.82,4.06-4.06,4.06
	c-2.24,0-4.06-1.82-4.06-4.06c0-0.02,0.01-0.03,0.01-0.05h-8.02c0.03,0.46,0.07,0.92,0.07,1.38c0,11.02-8.93,19.95-19.95,19.95
	c-11.02,0-19.95-8.93-19.95-19.95c0-0.47,0.04-0.92,0.07-1.38h-7.5c0,0.02,0.01,0.03,0.01,0.05c0,2.24-1.82,4.06-4.06,4.06
	c-2.24,0-4.06-1.82-4.06-4.06c0-0.02,0.01-0.03,0.01-0.05h-8.94c0,0.02,0.01,0.03,0.01,0.05c0,2.24-1.82,4.06-4.06,4.06
	s-4.06-1.82-4.06-4.06c0-0.02,0.01-0.03,0.01-0.05h-8.94c0,0.02,0.01,0.03,0.01,0.05c0,2.24-1.82,4.06-4.06,4.06
	c-2.24,0-4.06-1.82-4.06-4.06c0-0.02,0.01-0.03,0.01-0.05h-8.94c0,0.02,0.01,0.03,0.01,0.05c0,2.24-1.82,4.06-4.06,4.06
	c-2.24,0-4.06-1.82-4.06-4.06c0-0.02,0.01-0.03,0.01-0.05h-8.94c0,0.02,0.01,0.03,0.01,0.05c0,2.24-1.82,4.06-4.06,4.06
	s-4.06-1.82-4.06-4.06c0-0.02,0.01-0.03,0.01-0.05h-8.94c0,0.02,0.01,0.03,0.01,0.05c0,2.24-1.82,4.06-4.06,4.06
	c-2.24,0-4.06-1.82-4.06-4.06c0-0.02,0.01-0.03,0.01-0.05h-8.94c0,0.02,0.01,0.03,0.01,0.05c0,2.24-1.82,4.06-4.06,4.06
	s-4.06-1.82-4.06-4.06c0-0.02,0.01-0.03,0.01-0.05h-8.94c0,0.02,0.01,0.03,0.01,0.05c0,2.24-1.82,4.06-4.06,4.06
	c-2.24,0-4.06-1.82-4.06-4.06c0-0.02,0.01-0.03,0.01-0.05h-8.94c0,0.02,0.01,0.03,0.01,0.05c0,2.24-1.82,4.06-4.06,4.06
	s-4.06-1.82-4.06-4.06c0-0.02,0-0.03,0.01-0.05h-8.94c0,0.02,0.01,0.03,0.01,0.05c0,2.24-1.82,4.06-4.06,4.06s-4.06-1.82-4.06-4.06
	c0-0.02,0.01-0.03,0.01-0.05h-8.94c0,0.02,0.01,0.03,0.01,0.05c0,2.24-1.82,4.06-4.06,4.06c-2.24,0-4.06-1.82-4.06-4.06
	c0-0.02,0.01-0.03,0.01-0.05h-8.94c0,0.02,0.01,0.03,0.01,0.05c0,2.24-1.82,4.06-4.06,4.06c-2.24,0-4.06-1.82-4.06-4.06
	c0-0.02,0.01-0.03,0.01-0.05h-8.94c0,0.02,0.01,0.03,0.01,0.05c0,2.24-1.82,4.06-4.06,4.06c-2.24,0-4.06-1.82-4.06-4.06
	c0-0.02,0.01-0.03,0.01-0.05h-8.94c0,0.02,0.01,0.03,0.01,0.05c0,2.24-1.82,4.06-4.06,4.06s-4.06-1.82-4.06-4.06
	c0-0.02,0.01-0.03,0.01-0.05h-8.94c0,0.02,0.01,0.03,0.01,0.05c0,2.24-1.82,4.06-4.06,4.06c-2.24,0-4.06-1.82-4.06-4.06
	c0-0.02,0.01-0.03,0.01-0.05h-8.94c0,0.02,0.01,0.03,0.01,0.05c0,2.24-1.82,4.06-4.06,4.06c-2.24,0-4.06-1.82-4.06-4.06
	c0-0.02,0.01-0.03,0.01-0.05h-8.94c0,0.02,0.01,0.03,0.01,0.05c0,2.24-1.82,4.06-4.06,4.06s-4.06-1.82-4.06-4.06
	c0-0.02,0-0.03,0.01-0.05h-8.94c0,0.02,0.01,0.03,0.01,0.05c0,2.24-1.82,4.06-4.06,4.06c-2.24,0-4.06-1.82-4.06-4.06
	c0-0.02,0.01-0.03,0.01-0.05h-8.94c0,0.02,0.01,0.03,0.01,0.05c0,2.24-1.82,4.06-4.06,4.06c-2.24,0-4.06-1.82-4.06-4.06
	c0-0.02,0-0.03,0.01-0.05H76.5c0,0.02,0.01,0.03,0.01,0.05c0,2.24-1.82,4.06-4.06,4.06c-2.24,0-4.06-1.82-4.06-4.06
	c0-0.02,0.01-0.03,0.01-0.05h-8.94c0,0.02,0.01,0.03,0.01,0.05c0,2.24-1.82,4.06-4.06,4.06c-2.24,0-4.06-1.82-4.06-4.06
	c0-0.02,0.01-0.03,0.01-0.05h-8.94c0,0.02,0.01,0.03,0.01,0.05c0,2.24-1.82,4.06-4.06,4.06c-2.24,0-4.06-1.82-4.06-4.06
	c0-0.02,0-0.03,0.01-0.05h-8.94c0,0.02,0.01,0.03,0.01,0.05c0,2.24-1.82,4.06-4.06,4.06c-2.24,0-4.06-1.82-4.06-4.06
	c0-0.02,0.01-0.03,0.01-0.05H8.33c0,0.02,0.01,0.03,0.01,0.05c0,2.24-1.82,4.06-4.06,4.06c-2.24,0-4.06-1.82-4.06-4.06
	c0-0.02,0.01-0.03,0.01-0.05h-4.9v8.45c2.16,0.09,3.89,1.86,3.89,4.04c0,2.18-1.73,3.95-3.89,4.04v8.96
	c2.16,0.09,3.89,1.86,3.89,4.04s-1.73,3.95-3.89,4.04v8.96c2.16,0.09,3.89,1.86,3.89,4.04s-1.73,3.95-3.89,4.04v8.96
	c2.16,0.09,3.89,1.86,3.89,4.04c0,2.18-1.73,3.95-3.89,4.04v8.96c2.16,0.09,3.89,1.86,3.89,4.04s-1.73,3.95-3.89,4.04V86
	c2.16,0.09,3.89,1.86,3.89,4.04c0,2.18-1.73,3.95-3.89,4.04v8.96c2.16,0.09,3.89,1.86,3.89,4.04c0,2.18-1.73,3.95-3.89,4.04v8.96
	c2.16,0.09,3.89,1.86,3.89,4.04s-1.73,3.95-3.89,4.04v8.96c2.16,0.09,3.89,1.86,3.89,4.04c0,2.18-1.73,3.95-3.89,4.04v8.96
	c2.16,0.09,3.89,1.86,3.89,4.04c0,2.18-1.73,3.95-3.89,4.04v8.96c2.16,0.09,3.89,1.86,3.89,4.04c0,2.18-1.73,3.95-3.89,4.04v8.96
	c2.16,0.09,3.89,1.86,3.89,4.04c0,2.18-1.73,3.95-3.89,4.04v8.96c2.16,0.09,3.89,1.86,3.89,4.04c0,2.18-1.73,3.95-3.89,4.04v8.96
	c2.16,0.09,3.89,1.86,3.89,4.04c0,2.18-1.73,3.95-3.89,4.04v8.96c2.16,0.09,3.89,1.86,3.89,4.04c0,2.18-1.73,3.95-3.89,4.04v8.96
	c2.16,0.09,3.89,1.86,3.89,4.04s-1.73,3.95-3.89,4.04v8.96c2.16,0.09,3.89,1.86,3.89,4.04s-1.73,3.95-3.89,4.04v8.45h4.93
	c-0.01-0.1-0.03-0.2-0.03-0.3c0-2.24,1.82-4.06,4.06-4.06c2.24,0,4.06,1.82,4.06,4.06c0,0.1-0.02,0.2-0.03,0.3h8.99
	c-0.01-0.1-0.03-0.2-0.03-0.3c0-2.24,1.82-4.06,4.06-4.06c2.24,0,4.06,1.82,4.06,4.06c0,0.1-0.02,0.2-0.03,0.3h8.99
	c-0.01-0.1-0.03-0.2-0.03-0.3c0-2.24,1.82-4.06,4.06-4.06c2.24,0,4.06,1.82,4.06,4.06c0,0.1-0.02,0.2-0.03,0.3h8.99
	c-0.01-0.1-0.03-0.2-0.03-0.3c0-2.24,1.82-4.06,4.06-4.06c2.24,0,4.06,1.82,4.06,4.06c0,0.1-0.02,0.2-0.03,0.3h8.99
	c-0.01-0.1-0.03-0.2-0.03-0.3c0-2.24,1.82-4.06,4.06-4.06c2.24,0,4.06,1.82,4.06,4.06c0,0.1-0.02,0.2-0.03,0.3h8.99
	c-0.01-0.1-0.03-0.2-0.03-0.3c0-2.24,1.82-4.06,4.06-4.06c2.24,0,4.06,1.82,4.06,4.06c0,0.1-0.02,0.2-0.03,0.3h8.99
	c-0.01-0.1-0.03-0.2-0.03-0.3c0-2.24,1.82-4.06,4.06-4.06c2.24,0,4.06,1.82,4.06,4.06c0,0.1-0.02,0.2-0.03,0.3h8.99
	c-0.01-0.1-0.03-0.2-0.03-0.3c0-2.24,1.82-4.06,4.06-4.06s4.06,1.82,4.06,4.06c0,0.1-0.02,0.2-0.03,0.3h8.99
	c-0.01-0.1-0.03-0.2-0.03-0.3c0-2.24,1.82-4.06,4.06-4.06c2.24,0,4.06,1.82,4.06,4.06c0,0.1-0.02,0.2-0.03,0.3h8.99
	c-0.01-0.1-0.03-0.2-0.03-0.3c0-2.24,1.82-4.06,4.06-4.06c2.24,0,4.06,1.82,4.06,4.06c0,0.1-0.02,0.2-0.03,0.3h8.99
	c-0.01-0.1-0.03-0.2-0.03-0.3c0-2.24,1.82-4.06,4.06-4.06s4.06,1.82,4.06,4.06c0,0.1-0.02,0.2-0.03,0.3h8.99
	c-0.01-0.1-0.03-0.2-0.03-0.3c0-2.24,1.82-4.06,4.06-4.06c2.24,0,4.06,1.82,4.06,4.06c0,0.1-0.02,0.2-0.03,0.3h8.99
	c-0.01-0.1-0.03-0.2-0.03-0.3c0-2.24,1.82-4.06,4.06-4.06c2.24,0,4.06,1.82,4.06,4.06c0,0.1-0.02,0.2-0.03,0.3h8.99
	c-0.01-0.1-0.03-0.2-0.03-0.3c0-2.24,1.82-4.06,4.06-4.06c2.24,0,4.06,1.82,4.06,4.06c0,0.1-0.02,0.2-0.03,0.3h8.99
	c-0.01-0.1-0.03-0.2-0.03-0.3c0-2.24,1.82-4.06,4.06-4.06s4.06,1.82,4.06,4.06c0,0.1-0.02,0.2-0.03,0.3h8.99
	c-0.01-0.1-0.03-0.2-0.03-0.3c0-2.24,1.82-4.06,4.06-4.06s4.06,1.82,4.06,4.06c0,0.1-0.02,0.2-0.03,0.3h8.99
	c-0.01-0.1-0.03-0.2-0.03-0.3c0-2.24,1.82-4.06,4.06-4.06c2.24,0,4.06,1.82,4.06,4.06c0,0.1-0.02,0.2-0.03,0.3h8.99
	c-0.01-0.1-0.03-0.2-0.03-0.3c0-2.24,1.82-4.06,4.06-4.06s4.06,1.82,4.06,4.06c0,0.1-0.02,0.2-0.03,0.3h8.99
	c-0.01-0.1-0.03-0.2-0.03-0.3c0-2.24,1.82-4.06,4.06-4.06c2.24,0,4.06,1.82,4.06,4.06c0,0.1-0.02,0.2-0.03,0.3h8.99
	c-0.01-0.1-0.03-0.2-0.03-0.3c0-2.24,1.82-4.06,4.06-4.06s4.06,1.82,4.06,4.06c0,0.1-0.02,0.2-0.03,0.3h8.99
	c-0.01-0.1-0.03-0.2-0.03-0.3c0-2.24,1.82-4.06,4.06-4.06c2.24,0,4.06,1.82,4.06,4.06c0,0.1-0.02,0.2-0.03,0.3h8.99
	c-0.01-0.1-0.03-0.2-0.03-0.3c0-2.24,1.82-4.06,4.06-4.06c2.24,0,4.06,1.82,4.06,4.06c0,0.1-0.02,0.2-0.03,0.3h8.99
	c-0.01-0.1-0.03-0.2-0.03-0.3c0-2.24,1.82-4.06,4.06-4.06s4.06,1.82,4.06,4.06c0,0.1-0.02,0.2-0.03,0.3h8.99
	c-0.01-0.1-0.03-0.2-0.03-0.3c0-2.24,1.82-4.06,4.06-4.06c2.24,0,4.06,1.82,4.06,4.06c0,0.1-0.02,0.2-0.03,0.3h7.46
	c0-0.08-0.01-0.16-0.01-0.25c0-11.02,8.93-19.95,19.95-19.95c11.02,0,19.95,8.93,19.95,19.95c0,0.08-0.01,0.16-0.01,0.25h7.98
	c-0.01-0.1-0.03-0.2-0.03-0.3c0-2.24,1.82-4.06,4.06-4.06c2.24,0,4.06,1.82,4.06,4.06c0,0.1-0.02,0.2-0.03,0.3h8.99
	c-0.01-0.1-0.03-0.2-0.03-0.3c0-2.24,1.82-4.06,4.06-4.06c2.24,0,4.06,1.82,4.06,4.06c0,0.1-0.02,0.2-0.03,0.3h8.99
	c-0.01-0.1-0.03-0.2-0.03-0.3c0-2.24,1.82-4.06,4.06-4.06c2.24,0,4.06,1.82,4.06,4.06c0,0.1-0.02,0.2-0.03,0.3h8.99
	c-0.01-0.1-0.03-0.2-0.03-0.3c0-2.24,1.82-4.06,4.06-4.06c2.24,0,4.06,1.82,4.06,4.06c0,0.1-0.02,0.2-0.03,0.3h8.99
	c-0.01-0.1-0.03-0.2-0.03-0.3c0-2.24,1.82-4.06,4.06-4.06c2.24,0,4.06,1.82,4.06,4.06c0,0.1-0.02,0.2-0.03,0.3h8.99
	c-0.01-0.1-0.03-0.2-0.03-0.3c0-2.24,1.82-4.06,4.06-4.06c2.24,0,4.06,1.82,4.06,4.06c0,0.1-0.02,0.2-0.03,0.3h8.99
	c-0.01-0.1-0.03-0.2-0.03-0.3c0-2.24,1.82-4.06,4.06-4.06c2.24,0,4.06,1.82,4.06,4.06c0,0.1-0.02,0.2-0.03,0.3h8.99
	c-0.01-0.1-0.03-0.2-0.03-0.3c0-2.24,1.82-4.06,4.06-4.06c2.24,0,4.06,1.82,4.06,4.06c0,0.1-0.02,0.2-0.03,0.3h8.99
	c-0.01-0.1-0.03-0.2-0.03-0.3c0-2.24,1.82-4.06,4.06-4.06c2.24,0,4.06,1.82,4.06,4.06c0,0.1-0.02,0.2-0.03,0.3h7.61v-8.44
	C605.42,281.48,603.66,279.7,603.66,277.5z"/>
<ellipse class="st1" cx="218.66" cy="144.18" rx="128.03" ry="20.29"/>
<g>
	<g>
		<g>
			<rect x="450.19" y="176.87" class="st2" width="39.77" height="3.93"/>
			<rect x="444.38" y="181.99" class="st2" width="45.59" height="1.96"/>
			<rect x="450.19" y="189.45" class="st2" width="39.77" height="0.98"/>
			<rect x="450.19" y="191.13" class="st2" width="39.77" height="0.98"/>
			<rect x="450.19" y="193.02" class="st2" width="39.77" height="3.92"/>
			<rect x="444.38" y="197.85" class="st2" width="45.59" height="1.96"/>
			<rect x="450.19" y="203.24" class="st2" width="39.77" height="0.98"/>
			<rect x="450.19" y="205.14" class="st2" width="39.77" height="0.98"/>
			<rect x="450.19" y="207.03" class="st2" width="39.77" height="3.2"/>
			<rect x="450.19" y="211.34" class="st2" width="39.77" height="7.8"/>
			<rect x="450.19" y="222.79" class="st2" width="39.77" height="7.8"/>
			<rect x="444.38" y="231.61" class="st2" width="45.59" height="2.58"/>
			<rect x="450.19" y="235.08" class="st2" width="39.77" height="1.29"/>
			<rect x="450.19" y="237.81" class="st2" width="39.77" height="1.29"/>
			<rect x="450.19" y="240.54" class="st2" width="39.77" height="2.73"/>
			<rect x="450.19" y="245.59" class="st2" width="39.77" height="0.65"/>
			<rect x="450.19" y="247.53" class="st2" width="39.77" height="2.27"/>
			<rect x="444.38" y="250.63" class="st2" width="45.59" height="1.96"/>
			<rect x="450.19" y="254.31" class="st2" width="39.77" height="0.98"/>
		</g>
		<text transform="matrix(0 1 -1 0 441.6229 186.0257)" class="st2 st3 st4 st5">00</text>
		<text transform="matrix(0 1 -1 0 441.6229 234.8743)" class="st2 st3 st4 st5">000</text>
		<text transform="matrix(0 1 -1 0 441.6229 203.14)" class="st2 st3 st4 st5">00000</text>
	</g>
</g>
<g>
	<path class="st6" d="M583.35,12.41h-146c-3.44,3.29-8.1,5.31-13.23,5.31c-5.13,0-9.79-2.03-13.23-5.31H11.5v255.8h400.62
		c3.29-2.64,7.45-4.22,11.99-4.22s8.71,1.59,11.99,4.22h147.23V12.41z"/>
</g>
<g>
	<g>
		<line class="st7" x1="422.91" y1="20.62" x2="422.91" y2="23.62"/>
		<line class="st8" x1="422.91" y1="32.56" x2="422.91" y2="251.64"/>
		<line class="st7" x1="422.91" y1="256.11" x2="422.91" y2="259.11"/>
	</g>
</g>
<g>
	<text transform="matrix(0 1 -1 0 504.1225 177.5969)" class="st2 st3 st9 st10">0001a</text>
</g>
<g>
	<path class="st2" d="M531.26,178.22v74.92h-35.02v-74.92H531.26 M533.26,176.22h-39.02v78.92h39.02V176.22L533.26,176.22z"/>
</g>
<circle class="st11" cx="161.14" cy="273.54" r="9.98"/>
<g>
	<g>
		<path class="st12" d="M84.88,89.19v78.18H60.8V89.19H84.88z"/>
		<path class="st12" d="M152.16,167.37h-22.19v-32.25c0-3.28-1.4-4.93-4.21-4.93c-2.77,0-4.15,1.64-4.15,4.93v32.25H99.42v-31.84
			c0-7.45,2.55-13.72,7.65-18.81c5.1-5.1,11.35-7.65,18.75-7.65c8.46,0,15.25,2.96,20.35,8.88c3.99,4.62,5.99,11.05,5.99,19.3
			V167.37z"/>
		<path class="st12" d="M196.66,143.83v19.65c-3.2,1.15-6.27,1.72-9.2,1.72c-7.16,0-13.22-2.62-18.18-7.85
			c-4.96-5.23-7.44-11.63-7.44-19.19c0-8.17,2.99-15.06,8.96-20.68c5.97-5.61,13.31-8.42,22.01-8.42c4.63,0,9.06,0.9,13.29,2.69
			c4.23,1.8,7.55,4.2,9.97,7.22c4.03,5,6.05,12.26,6.05,21.76v18.79c0,10.19-3,18.47-8.99,24.83s-13.79,9.54-23.4,9.54
			c-2.93,0-6.63-0.71-11.09-2.12V172.3c2.89,1.53,5.81,2.29,8.78,2.29c3.99,0,7.08-1.27,9.25-3.81c2.18-2.54,3.26-6.18,3.26-10.91
			v-21.48c0-5.99-2.51-8.99-7.53-8.99c-2.14,0-4,0.79-5.61,2.38c-1.6,1.58-2.4,3.41-2.4,5.47c0,2.18,0.76,3.99,2.28,5.44
			c1.52,1.45,3.41,2.18,5.67,2.18C193.83,144.86,195.27,144.52,196.66,143.83z"/>
		<path class="st12" d="M267.61,109.7v22.91c-1.54-0.84-2.95-1.26-4.21-1.26c-4.03,0-6.05,2.98-6.05,8.93v27.09h-22.19v-31.21
			c0-8.25,2.33-14.82,7-19.73c4.67-4.91,10.9-7.36,18.69-7.36C262.59,109.07,264.84,109.28,267.61,109.7z"/>
		<path class="st12" d="M332.28,142.29h-33.64c-0.51-1.64-0.77-3.15-0.77-4.52c0-1.91,0.36-3.78,1.07-5.61h11.27
			c-0.79-4.24-3.26-6.36-7.42-6.36c-2.77,0-5.02,1.14-6.76,3.41c-1.74,2.27-2.61,5.18-2.61,8.73c0,3.7,0.84,6.7,2.52,8.99
			c1.68,2.29,3.89,3.44,6.62,3.44c2.21,0,4.35-1.07,6.41-3.21l12.64,14.66c-5.89,4.47-12.44,6.7-19.64,6.7
			c-8.78,0-16.16-2.84-22.13-8.53c-5.97-5.69-8.96-12.73-8.96-21.13c0-8.36,3.02-15.43,9.05-21.19c6.03-5.76,13.44-8.65,22.22-8.65
			c8.58,0,15.79,2.82,21.62,8.45c5.83,5.63,8.75,12.57,8.75,20.82C332.52,139.12,332.44,140.45,332.28,142.29z"/>
		<path class="st12" d="M378.56,111.07v22.57c-3.13,0-5.27,0.56-6.44,1.69c-1.17,1.13-1.91,3.35-2.23,6.67
			c-1.03,11.03-5.46,18.82-13.29,23.37c-4.15,2.37-10.05,3.55-17.68,3.55h-3.08v-22.68h1.01c3.56,0,6.1-0.72,7.62-2.15
			c1.52-1.43,2.4-3.94,2.64-7.53c0.32-5.84,0.88-9.95,1.69-12.31c0.81-2.37,2.46-4.72,4.95-7.04c4.35-4.09,10.38-6.13,18.09-6.13
			H378.56z"/>
		<path class="st12" d="M422.87,111.07v22.57c-3.12,0-5.27,0.56-6.44,1.69c-1.17,1.13-1.91,3.35-2.22,6.67
			c-1.03,11.03-5.46,18.82-13.29,23.37c-4.15,2.37-10.05,3.55-17.68,3.55h-3.08v-22.68h1.01c3.56,0,6.1-0.72,7.62-2.15
			c1.52-1.43,2.4-3.94,2.64-7.53c0.32-5.84,0.88-9.95,1.69-12.31c0.81-2.37,2.46-4.72,4.95-7.04c4.35-4.09,10.38-6.13,18.1-6.13
			H422.87z"/>
		<path class="st12" d="M458.17,109.07c8.38,0,15.57,2.91,21.56,8.73c5.99,5.82,8.99,12.8,8.99,20.93c0,8.25-3.04,15.27-9.11,21.08
			c-6.07,5.8-13.4,8.71-21.98,8.71s-15.92-2.91-22.01-8.73c-6.09-5.82-9.14-12.84-9.14-21.05c0-8.36,3.05-15.4,9.14-21.1
			C441.72,111.92,449.24,109.07,458.17,109.07z M457.58,130.2c-2.37,0-4.39,0.83-6.05,2.49c-1.66,1.66-2.49,3.69-2.49,6.1
			c0,2.37,0.84,4.39,2.52,6.07c1.68,1.68,3.69,2.52,6.02,2.52c2.37,0,4.4-0.84,6.08-2.52c1.68-1.68,2.52-3.7,2.52-6.07
			c0-2.41-0.83-4.44-2.49-6.1C462.03,131.03,459.99,130.2,457.58,130.2z"/>
		<path class="st12" d="M535.06,111.07v22.57c-3.13,0-5.27,0.56-6.44,1.69c-1.17,1.13-1.91,3.35-2.22,6.67
			c-1.03,11.03-5.46,18.82-13.29,23.37c-4.15,2.37-10.05,3.55-17.68,3.55h-3.09v-22.68h1.01c3.56,0,6.1-0.72,7.62-2.15
			c1.52-1.43,2.4-3.94,2.64-7.53c0.32-5.84,0.88-9.95,1.69-12.31c0.81-2.37,2.46-4.72,4.95-7.04c4.35-4.09,10.38-6.13,18.1-6.13
			H535.06z"/>
	</g>
</g>
</svg>
