<?xml version="1.0" encoding="utf-8"?>
<!-- Generator: Adobe Illustrator 28.1.0, SVG Export Plug-In . SVG Version: 6.00 Build 0)  -->
<svg version="1.1" id="Camada_1" xmlns="http://www.w3.org/2000/svg" xmlns:xlink="http://www.w3.org/1999/xlink" x="0px" y="0px"
	 viewBox="0 0 502.37 502.37" style="enable-background:new 0 0 502.37 502.37;" xml:space="preserve">
<style type="text/css">
	.st0{fill:url(#SVGID_1_);stroke:#1E1E1C;stroke-width:11;stroke-miterlimit:10;}
	.st1{fill:#1E1E1C;}
</style>
<g>
	<linearGradient id="SVGID_1_" gradientUnits="userSpaceOnUse" x1="-0.1471" y1="251.1862" x2="491.2254" y2="251.1862">
		<stop  offset="0" style="stop-color:#FDEB34"/>
		<stop  offset="0.1193" style="stop-color:#FDEB24"/>
		<stop  offset="0.2809" style="stop-color:#FEEB1A"/>
		<stop  offset="0.6011" style="stop-color:#F18F33"/>
		<stop  offset="0.8876" style="stop-color:#E96032"/>
		<stop  offset="1" style="stop-color:#E4332E"/>
	</linearGradient>
	<circle class="st0" cx="251.19" cy="251.19" r="245.69"/>
	<g>
		<path class="st1" d="M305.09,146.97H197.28c-27.78,0-50.31,22.53-50.31,50.31v107.81c0,27.78,22.53,50.31,50.31,50.31h107.81
			c27.78,0,50.31-22.53,50.31-50.31V197.28C355.4,169.5,332.87,146.97,305.09,146.97z M337.43,301.5c0,19.84-16.1,35.94-35.94,35.94
			H200.88c-19.84,0-35.94-16.1-35.94-35.94V200.88c0-19.84,16.1-35.94,35.94-35.94H301.5c19.84,0,35.94,16.1,35.94,35.94V301.5z"/>
		<path class="st1" d="M251.29,197.28c-29.75,0-53.9,24.15-53.9,53.9c0,29.75,24.15,53.9,53.9,53.9c29.75,0,53.9-24.15,53.9-53.9
			C305.19,221.43,281.04,197.28,251.29,197.28z M251.29,287.12c-19.8,0-35.94-16.14-35.94-35.94s16.14-35.94,35.94-35.94
			c19.8,0,35.94,16.14,35.94,35.94S271.09,287.12,251.29,287.12z"/>
		<circle class="st1" cx="308.79" cy="193.69" r="10.78"/>
	</g>
</g>
</svg>
