<?xml version="1.0" encoding="utf-8"?>
<!-- Generator: Adobe Illustrator 28.1.0, SVG Export Plug-In . SVG Version: 6.00 Build 0)  -->
<svg version="1.1" id="Camada_1" xmlns="http://www.w3.org/2000/svg" xmlns:xlink="http://www.w3.org/1999/xlink" x="0px" y="0px"
	 viewBox="0 0 82.7 112.3" style="enable-background:new 0 0 82.7 112.3;" xml:space="preserve">
<style type="text/css">
	.st0{fill:url(#SVGID_1_);}
	.st1{fill:url(#SVGID_00000099623176256114141020000000669840782755516578_);}
	.st2{fill:url(#SVGID_00000113335645656161103510000000047203695746387372_);}
	.st3{fill:url(#SVGID_00000015312808326017842770000017832976831091225265_);}
</style>
<linearGradient id="SVGID_1_" gradientUnits="userSpaceOnUse" x1="0" y1="57.825" x2="82.7" y2="57.825" gradientTransform="matrix(1 0 0 -1 0 114)">
	<stop  offset="0" style="stop-color:#00E1FF"/>
	<stop  offset="0" style="stop-color:#0A8EC0"/>
	<stop  offset="0" style="stop-color:#FFFFFF"/>
	<stop  offset="0.7989" style="stop-color:#00EDFF"/>
</linearGradient>
<path class="st0" d="M41.4,112.3l-2.2-2.3c-0.4-0.4-9.9-10-19.5-23.3C14.1,79,9.5,71.6,6.3,64.7C2.1,56,0,48.1,0,41.3
	c0-11,4.3-21.4,12.1-29.2S30.3,0,41.3,0s21.4,4.3,29.2,12.1s12.1,18.2,12.1,29.2S76.1,67.1,63,85.6c-9.6,13.6-19,24-19.4,24.4
	L41.4,112.3L41.4,112.3z"/>
<linearGradient id="SVGID_00000013874351312682251910000001298702902786321574_" gradientUnits="userSpaceOnUse" x1="6.02" y1="59.235" x2="76.67" y2="59.235" gradientTransform="matrix(1 0 0 -1 0 114)">
	<stop  offset="0" style="stop-color:#00E1FF"/>
	<stop  offset="0" style="stop-color:#0A8EC0"/>
	<stop  offset="0" style="stop-color:#FFFFFF"/>
	<stop  offset="0.7989" style="stop-color:#00EDFF"/>
</linearGradient>
<path style="fill:url(#SVGID_00000013874351312682251910000001298702902786321574_);" d="M41.3,6C21.9,6,6,21.9,6,41.3
	c0,22.4,27.2,53.5,35.2,62.2c3.3-3.9,10.1-11.9,16.8-21.4c12.2-17.2,18.6-31.3,18.6-40.7C76.7,21.9,60.8,6,41.3,6L41.3,6z"/>
<linearGradient id="SVGID_00000170253125585183895930000008650243944854325664_" gradientUnits="userSpaceOnUse" x1="17.76" y1="73.87" x2="64.94" y2="73.87" gradientTransform="matrix(1 0 0 -1 0 114)">
	<stop  offset="0" style="stop-color:#00E1FF"/>
	<stop  offset="0" style="stop-color:#0A8EC0"/>
	<stop  offset="0" style="stop-color:#FFFFFF"/>
	<stop  offset="0.7989" style="stop-color:#00EDFF"/>
</linearGradient>
<path style="fill:url(#SVGID_00000170253125585183895930000008650243944854325664_);" d="M41.3,63.7c-13,0-23.6-10.6-23.6-23.6
	s10.6-23.6,23.6-23.6s23.6,10.6,23.6,23.6S54.4,63.7,41.3,63.7z"/>
<linearGradient id="SVGID_00000141432153448300306520000007217686108791635892_" gradientUnits="userSpaceOnUse" x1="23.78" y1="40.13" x2="58.92" y2="40.13">
	<stop  offset="0" style="stop-color:#00E1FF"/>
	<stop  offset="0" style="stop-color:#0A8EC0"/>
	<stop  offset="0" style="stop-color:#000000"/>
</linearGradient>
<path style="fill:url(#SVGID_00000141432153448300306520000007217686108791635892_);" d="M41.3,22.6c-9.7,0-17.6,7.9-17.6,17.6
	s7.9,17.6,17.6,17.6s17.6-7.9,17.6-17.6S51,22.6,41.3,22.6z"/>
</svg>
