<?xml version="1.0" encoding="utf-8"?>
<!-- Generator: Adobe Illustrator 28.1.0, SVG Export Plug-In . SVG Version: 6.00 Build 0)  -->
<svg version="1.1" id="Camada_1" xmlns="http://www.w3.org/2000/svg" xmlns:xlink="http://www.w3.org/1999/xlink" x="0px" y="0px"
	 viewBox="0 0 502.37 502.37" style="enable-background:new 0 0 502.37 502.37;" xml:space="preserve">
<style type="text/css">
	.st0{fill:url(#SVGID_1_);stroke:#1E1E1C;stroke-width:11;stroke-miterlimit:10;}
	.st1{fill:#FFFFFF;}
</style>
<g>
	<g>
		<g>
			<linearGradient id="SVGID_1_" gradientUnits="userSpaceOnUse" x1="5.5" y1="251.1862" x2="496.8725" y2="251.1862">
				<stop  offset="0" style="stop-color:#1C1F14"/>
				<stop  offset="0.0378" style="stop-color:#39281A"/>
				<stop  offset="0.084" style="stop-color:#57291A"/>
				<stop  offset="0.1312" style="stop-color:#6E2619"/>
				<stop  offset="0.1792" style="stop-color:#802117"/>
				<stop  offset="0.2284" style="stop-color:#8B1B16"/>
				<stop  offset="0.2809" style="stop-color:#8F1916"/>
				<stop  offset="0.6011" style="stop-color:#E42D18"/>
				<stop  offset="0.8876" style="stop-color:#E96032"/>
				<stop  offset="1" style="stop-color:#EE720C"/>
			</linearGradient>
			<circle class="st0" cx="251.19" cy="251.19" r="245.69"/>
		</g>
	</g>
	<path class="st1" d="M177.86,122.67c-2.33-3.87-6.24-6.41-10.73-6.96c-0.6-0.07-1.21-0.11-1.81-0.11c-3.84,0-7.51,1.51-10.28,4.27
		l-33.75,33.75c-3.85,3.81-5.91,9.07-5.68,14.45c1.08,24.14,10.16,86.88,70.97,147.74c60.82,60.82,123.58,69.89,147.74,70.97
		c5.41,0.18,10.6-1.85,14.44-5.68l33.75-33.75c3.19-3.19,4.71-7.6,4.16-12.09c-0.55-4.5-3.09-8.41-6.97-10.74l-51.72-31.01
		c-5.74-3.43-13.05-2.54-17.78,2.18l-15.75,15.71c-4.5,4.49-11.29,5.6-16.91,2.76c-9.25-4.63-25.41-15.26-49.72-39.58
		c-24.33-24.33-34.96-40.48-39.59-49.75c-2.85-5.62-1.75-12.42,2.73-16.9l15.75-15.75c4.72-4.72,5.62-12.04,2.18-17.78
		L177.86,122.67z"/>
</g>
</svg>
