<?xml version="1.0" encoding="utf-8"?>
<!-- Generator: Adobe Illustrator 28.1.0, SVG Export Plug-In . SVG Version: 6.00 Build 0)  -->
<svg version="1.1" id="Camada_1" xmlns="http://www.w3.org/2000/svg" xmlns:xlink="http://www.w3.org/1999/xlink" x="0px" y="0px"
	 viewBox="0 0 502.37 502.37" style="enable-background:new 0 0 502.37 502.37;" xml:space="preserve">
<style type="text/css">
	.st0{fill:url(#SVGID_1_);stroke:#1E1E1C;stroke-width:11;stroke-miterlimit:10;}
	.st1{fill:#FFFFFF;}
</style>
<g>
	<g>
		<g>
			<linearGradient id="SVGID_1_" gradientUnits="userSpaceOnUse" x1="5.5" y1="251.1862" x2="496.8725" y2="251.1862">
				<stop  offset="0" style="stop-color:#1C1F14"/>
				<stop  offset="0.0378" style="stop-color:#39281A"/>
				<stop  offset="0.084" style="stop-color:#57291A"/>
				<stop  offset="0.1312" style="stop-color:#6E2619"/>
				<stop  offset="0.1792" style="stop-color:#802117"/>
				<stop  offset="0.2284" style="stop-color:#8B1B16"/>
				<stop  offset="0.2809" style="stop-color:#8F1916"/>
				<stop  offset="0.6011" style="stop-color:#E42D18"/>
				<stop  offset="0.8876" style="stop-color:#E96032"/>
				<stop  offset="1" style="stop-color:#EE720C"/>
			</linearGradient>
			<circle class="st0" cx="251.19" cy="251.19" r="245.69"/>
		</g>
	</g>
	<g>
		<path class="st1" d="M247.21,131.93c-61.4,1.99-112.12,51.72-115.19,113.08c-1.11,22.12,3.77,43.03,13.26,61.18l-13.33,59.7
			c-0.56,2.7,1.83,5.09,4.53,4.53l59.7-13.33h0.04c18.03,9.42,38.72,14.3,60.68,13.28c61.26-2.84,111.15-53.17,113.52-114.45
			C373.1,186.52,316.52,129.68,247.21,131.93z M251.19,345.82c-17.36,0-33.62-4.69-47.6-12.88c-1.32-0.74-2.59-1.52-3.83-2.35
			l-38.14,10.16l10.16-38.14c-9.63-14.81-15.22-32.46-15.22-51.43c0-52.17,42.46-94.63,94.63-94.63s94.63,42.46,94.63,94.63
			S303.36,345.82,251.19,345.82z"/>
		<path class="st1" d="M307.31,292.84c-1.65,2.48-3.38,4.79-6.15,7.55c-6.06,6.06-14.48,9.12-23.02,8.25
			c-15.3-1.57-37.04-10.02-55.73-28.67c-18.69-18.69-27.14-40.43-28.67-55.73c-0.87-8.54,2.19-16.95,8.25-23.02
			c2.76-2.76,5.07-4.5,7.55-6.19c4.58-3.09,10.81-1.03,12.54,4.17l6.27,18.81c1.73,5.16,0.95,8.42-1.28,10.6l-4.99,5.04
			c-2.48,2.48-2.89,6.31-0.99,9.28c2.76,4.33,7.96,11.26,17.53,20.83c9.57,9.57,16.5,14.77,20.83,17.53
			c2.97,1.9,6.81,1.49,9.28-0.99l5.04-4.99c2.19-2.23,5.45-3.01,10.6-1.28l18.81,6.27C308.38,282.04,310.44,288.27,307.31,292.84z"
			/>
	</g>
</g>
</svg>
