<?xml version="1.0" encoding="utf-8"?>
<!-- Generator: Adobe Illustrator 28.1.0, SVG Export Plug-In . SVG Version: 6.00 Build 0)  -->
<svg version="1.1" id="Camada_1" xmlns="http://www.w3.org/2000/svg" xmlns:xlink="http://www.w3.org/1999/xlink" x="0px" y="0px"
	 viewBox="0 0 150 181" style="enable-background:new 0 0 150 181;" xml:space="preserve">
<style type="text/css">
	.st0{fill:#FFED00;stroke:#020203;stroke-miterlimit:10;}
	.st1{fill:#36A9E1;}
	.st2{fill:#FFFFFF;stroke:#020203;stroke-miterlimit:10;}
	.st3{fill:#E62F32;stroke:#020203;stroke-miterlimit:10;}
	.st4{fill:#E30613;stroke:#020203;stroke-miterlimit:10;}
	.st5{fill:#F39323;stroke:#020203;stroke-miterlimit:10;}
	.st6{fill:#80BC49;stroke:#020203;stroke-miterlimit:10;}
	.st7{fill:#F4E600;stroke:#020203;stroke-miterlimit:10;}
	.st8{fill:#6FC7DA;stroke:#020203;stroke-miterlimit:10;}
	.st9{fill:#EB5B28;stroke:#020203;stroke-miterlimit:10;}
	.st10{fill:#67B32E;stroke:#020203;stroke-miterlimit:10;}
	.st11{fill:#2B4B9B;stroke:#020203;stroke-miterlimit:10;}
	.st12{fill:#E52629;stroke:#020203;stroke-miterlimit:10;}
</style>
<polyline class="st0" points="4.36,168.96 10.36,179.97 140.36,179.97 147.57,168.96 4.86,168.96 "/>
<g>
	<path class="st1" d="M39.11,170.49v8.12H35.1v-8.12H39.11z"/>
	<path class="st1" d="M47.68,172.82v5.79h-4.01v-5.79h-3.07v-2.33h10.15v2.33H47.68z"/>
	<path class="st1" d="M57.12,174.54v2.14h-1.16v1.93h-4.01v-5.16c0-1,0.45-1.77,1.36-2.33c0.91-0.55,2.18-0.83,3.82-0.83
		c1.58,0,2.75,0.25,3.51,0.75s1.14,1.28,1.14,2.32v5.24h-4.01v-5.08c0-0.32-0.06-0.54-0.19-0.66c-0.13-0.12-0.35-0.18-0.67-0.18
		c-0.63,0-0.94,0.28-0.94,0.84v1.01H57.12z"/>
	<path class="st1" d="M68.56,179.36v-0.71c-1.57-0.26-2.82-0.77-3.76-1.52c-0.94-0.75-1.41-1.62-1.41-2.6c0-1.3,0.82-2.37,2.45-3.2
		c1.36-0.69,2.9-1.03,4.64-1.03c2.23,0,4.04,0.49,5.41,1.46c1.11,0.79,1.66,1.69,1.66,2.72c0,1.01-0.49,1.91-1.47,2.71
		c-0.88,0.72-2.12,1.21-3.7,1.48v0.71H68.56z M68.7,175.18h3.55v0.91c0.79-0.41,1.19-0.93,1.19-1.55c0-0.5-0.29-0.94-0.88-1.31
		s-1.28-0.55-2.08-0.55c-0.8,0-1.5,0.18-2.09,0.55c-0.59,0.37-0.88,0.8-0.88,1.31c0,0.64,0.4,1.16,1.19,1.55V175.18z"/>
	<path class="st1" d="M88.92,170.49v5.26c0,0.93-0.46,1.67-1.38,2.22c-0.92,0.56-2.14,0.83-3.67,0.83c-1.52,0-2.69-0.27-3.49-0.81
		c-0.81-0.54-1.21-1.31-1.21-2.32v-5.19h4.01v5.18c0,0.5,0.29,0.74,0.88,0.74c0.57,0,0.85-0.25,0.85-0.74v-5.18H88.92z"/>
	<path class="st1" d="M98.56,173.65v1.81h-2.62c-0.36,0-0.61,0.03-0.76,0.1c-0.15,0.06-0.22,0.17-0.22,0.32
		c0,0.17,0.08,0.28,0.23,0.34c0.15,0.05,0.46,0.08,0.93,0.08h2.7v2.32h-3.15c-1.48,0-2.62-0.21-3.4-0.64s-1.18-1.04-1.18-1.85v-3.18
		c0-0.78,0.37-1.38,1.11-1.81c0.74-0.43,1.78-0.64,3.13-0.64h3.49v2.33h-2.56c-0.69,0-1.04,0.13-1.04,0.4
		c0,0.16,0.08,0.27,0.25,0.33c0.16,0.06,0.46,0.09,0.88,0.09H98.56z"/>
	<path class="st1" d="M105.14,172.67v5.93h-4.01v-8.12h5.15c1.57,0,2.78,0.23,3.65,0.7c0.96,0.52,1.44,1.19,1.44,1.99
		c0,0.82-0.6,1.51-1.79,2.08l2.31,3.35h-4.21l-1.95-2.62v-2.09h0.32c0.84,0,1.27-0.22,1.27-0.65c0-0.38-0.49-0.58-1.46-0.58H105.14z
		"/>
	<path class="st1" d="M118.13,174.54v2.14h-1.16v1.93h-4.01v-5.16c0-1,0.45-1.77,1.36-2.33c0.91-0.55,2.18-0.83,3.82-0.83
		c1.58,0,2.75,0.25,3.51,0.75s1.14,1.28,1.14,2.32v5.24h-4.01v-5.08c0-0.32-0.06-0.54-0.19-0.66c-0.13-0.12-0.35-0.18-0.67-0.18
		c-0.63,0-0.94,0.28-0.94,0.84v1.01H118.13z"/>
</g>
<path class="st2" d="M89.36,5.74"/>
<polygon class="st3" points="13.36,141.92 137.33,141.92 148.86,165.57 3.8,165.57 "/>
<ellipse class="st0" cx="73.86" cy="76.33" rx="52.5" ry="52.57"/>
<path class="st4" d="M74.36,94.33l-16-24.5c0,0,0,20.03,1,21.03s4,12.02,4,12.02l5,13.02l1,2l-7-2l-9-5.01l-8-7.01l-5-8.01h5
	l-2-6.01V76.83l1-15.02l1-7.01l-5,1l3-5.01l10-9.01l13-6.01h1.74l-3.74,7.01l-1,3l11,20.35l12-23.36l-5.74-7.01l10.74,3l8,5.01
	l6,5.01l5,6.01l2,3l-7-2l-2-2l2,6.01l1,9.01v10.01v10.01l-2,7.01h5l-4,6.01l-3,4.01l-5,4.01l-7,4.01l-5,3l-4.56,1l2.56-8.01l4-8.01
	l1.58-6.3l1.42-10.72l-0.56-8.01l-0.86-5.39l-0.58,2.39L74.36,94.33z"/>
<polygon class="st5" points="102.36,126.6 109.24,118.39 128.86,138.87 110.22,138.87 "/>
<polygon class="st5" points="45.86,126.65 39.11,118.44 19.86,138.92 38.15,138.92 "/>
<g>
	<polygon class="st6" points="114.95,28.43 130.36,28.43 128.79,26.97 126.61,25.51 119.56,25.51 117.13,26.24 	"/>
	<polyline class="st6" points="121.51,28.43 121.51,32.25 114.54,32.25 115.68,36.45 117.13,39.37 118.59,40.1 126.37,40.1 
		128.79,39.37 130.25,35.72 130.98,32.07 124.42,32.07 123.69,32.07 123.61,28.43 	"/>
</g>
<g>
	<polygon class="st7" points="64.95,4.39 80.36,4.39 78.79,2.94 76.61,1.48 69.56,1.48 67.13,2.21 	"/>
	<polyline class="st7" points="71.51,4.39 71.51,8.21 64.54,8.21 65.68,12.42 67.13,15.34 68.59,16.07 76.37,16.07 78.79,15.34 
		80.25,11.69 80.98,8.04 74.42,8.04 73.69,8.04 73.61,4.39 	"/>
</g>
<g>
	<polygon class="st8" points="14.95,28.43 30.36,28.43 28.79,26.97 26.61,25.51 19.56,25.51 17.13,26.24 	"/>
	<polyline class="st8" points="21.51,28.43 21.51,32.25 14.54,32.25 15.68,36.45 17.13,39.37 18.59,40.1 26.37,40.1 28.79,39.37 
		30.25,35.72 30.98,32.07 24.42,32.07 23.69,32.07 23.61,28.43 	"/>
</g>
<g>
	<polygon class="st9" points="0.95,69.48 16.36,69.48 14.79,68.02 12.61,66.57 5.56,66.57 3.13,67.29 	"/>
	<polyline class="st9" points="7.51,69.48 7.51,73.3 0.54,73.3 1.68,77.51 3.13,80.43 4.59,81.15 12.37,81.15 14.79,80.43 
		16.25,76.78 16.98,73.13 10.42,73.13 9.69,73.13 9.61,69.48 	"/>
</g>
<g>
	<polygon class="st10" points="14.95,112.54 30.36,112.54 28.79,111.08 26.61,109.62 19.56,109.62 17.13,110.35 	"/>
	<polyline class="st10" points="21.51,112.54 21.51,116.36 14.54,116.36 15.68,120.57 17.13,123.48 18.59,124.21 26.37,124.21 
		28.79,123.48 30.25,119.84 30.98,116.19 24.42,116.19 23.69,116.19 23.61,112.54 	"/>
</g>
<g>
	<polygon class="st11" points="127.95,69.48 143.36,69.48 141.79,68.02 139.61,66.57 132.56,66.57 130.13,67.29 	"/>
	<polyline class="st11" points="134.51,69.48 134.51,73.3 127.54,73.3 128.68,77.51 130.13,80.43 131.59,81.15 139.37,81.15 
		141.79,80.43 143.25,76.78 143.98,73.13 137.42,73.13 136.69,73.13 136.61,69.48 	"/>
</g>
<g>
	<polygon class="st12" points="113.95,113.54 129.36,113.54 127.79,112.08 125.61,110.62 118.56,110.62 116.13,111.35 	"/>
	<polyline class="st12" points="120.51,113.54 120.51,117.36 113.54,117.36 114.68,121.57 116.13,124.49 117.59,125.21 
		125.37,125.21 127.79,124.49 129.25,120.84 129.98,117.19 123.42,117.19 122.69,117.19 122.61,113.54 	"/>
</g>
<g>
	<path class="st1" d="M21.69,161.68v-11.1c0-1.38,0.58-2.5,1.75-3.37c1.17-0.87,2.68-1.31,4.55-1.31c2.21,0,3.91,0.73,5.1,2.18
		c0.73-0.78,1.5-1.34,2.34-1.68c0.83-0.33,1.86-0.5,3.08-0.5c1.94,0,3.42,0.44,4.45,1.31c1.03,0.87,1.55,2.13,1.55,3.77v10.71h-6.41
		v-10.02c0-0.5-0.06-0.83-0.17-0.99s-0.33-0.24-0.67-0.24c-0.63,0-0.95,0.38-0.95,1.15v10.1H29.9v-10.02c0-0.49-0.06-0.82-0.17-0.98
		c-0.12-0.17-0.34-0.25-0.68-0.25c-0.63,0-0.95,0.41-0.95,1.23v10.02H21.69z"/>
	<path class="st1" d="M56.2,153.95v4.06h-1.85v3.67h-6.41v-9.79c0-1.9,0.72-3.37,2.17-4.42c1.45-1.05,3.48-1.57,6.1-1.57
		c2.53,0,4.39,0.48,5.6,1.43c1.21,0.95,1.82,2.42,1.82,4.41v9.95h-6.41v-9.65c0-0.6-0.1-1.02-0.3-1.25
		c-0.2-0.23-0.56-0.35-1.07-0.35c-1,0-1.5,0.53-1.5,1.6v1.92H56.2z"/>
	<path class="st1" d="M73.93,150.42v11.26h-6.41v-15.4h8.23c2.5,0,4.45,0.44,5.83,1.33c1.54,0.99,2.31,2.25,2.31,3.78
		c0,1.56-0.95,2.87-2.86,3.94l3.69,6.35h-6.73l-3.11-4.96v-3.96h0.51c1.35,0,2.02-0.41,2.02-1.24c0-0.73-0.78-1.09-2.34-1.09H73.93z
		"/>
	<path class="st1" d="M93.27,146.28v15.4h-6.41v-15.4H93.27z"/>
	<path class="st1" d="M107.7,146.21v4.39c-0.46-0.11-0.82-0.17-1.07-0.17c-0.48,0-0.9,0.13-1.25,0.38
		c-0.35,0.26-0.52,0.56-0.52,0.92c0,0.31,0.19,0.7,0.57,1.17l0.49,0.61c0.88,1.1,1.33,2.16,1.33,3.18c0,1.5-0.74,2.76-2.23,3.8
		c-1.49,1.04-3.31,1.56-5.45,1.56c-1.03,0-2.05-0.17-3.06-0.51v-4.46c0.61,0.28,1.15,0.42,1.63,0.42c0.56,0,1.02-0.11,1.4-0.34
		c0.37-0.23,0.56-0.52,0.56-0.86c0-0.23-0.3-0.72-0.9-1.48c-0.96-1.2-1.44-2.41-1.44-3.61c0-1.45,0.72-2.7,2.17-3.75
		c1.45-1.05,3.18-1.57,5.19-1.57C105.98,145.9,106.85,146,107.7,146.21z"/>
	<path class="st1" d="M118.76,153.95v4.06h-1.85v3.67h-6.41v-9.79c0-1.9,0.72-3.37,2.17-4.42c1.45-1.05,3.48-1.57,6.1-1.57
		c2.53,0,4.39,0.48,5.6,1.43c1.21,0.95,1.82,2.42,1.82,4.41v9.95h-6.41v-9.65c0-0.6-0.1-1.02-0.3-1.25
		c-0.2-0.23-0.56-0.35-1.07-0.35c-1,0-1.5,0.53-1.5,1.6v1.92H118.76z"/>
</g>
</svg>
