<?xml version="1.0" encoding="UTF-8"?>
<svg id="Dimensions" xmlns="http://www.w3.org/2000/svg" viewBox="0 0 146.92 174.74">
  <defs>
    <style>
      .cls-1 {
        fill: lime;
        stroke: lime;
      }

      .cls-1, .cls-2, .cls-3, .cls-4, .cls-5, .cls-6, .cls-7, .cls-8, .cls-9, .cls-10 {
        stroke-miterlimit: 10;
      }

      .cls-2 {
        fill: blue;
        stroke: blue;
      }

      .cls-3 {
        stroke: #ff0;
      }

      .cls-3, .cls-11 {
        fill: #ff0;
      }

      .cls-4 {
        fill: #ff1d25;
      }

      .cls-4, .cls-6 {
        stroke: red;
      }

      .cls-5 {
        fill: #f15a24;
        stroke: #f15a24;
      }

      .cls-6 {
        fill: #ed1c24;
      }

      .cls-7 {
        fill: #1b1464;
        stroke: #1b1464;
      }

      .cls-8 {
        fill: aqua;
        stroke: aqua;
      }

      .cls-9 {
        fill: #7ac943;
        stroke: #8cc63f;
      }

      .cls-10 {
        fill: #f7931e;
        stroke: #f7931e;
      }
    </style>
  </defs>
  <polyline class="cls-10" points="1.62 163.22 7.62 174.24 137.62 174.24 144.82 163.22 2.12 163.22"/>
  <g>
    <path d="M36.37,164.75v8.12h-4.01v-8.12h4.01Z"/>
    <path d="M44.94,167.08v5.79h-4.01v-5.79h-3.07v-2.33h10.15v2.33h-3.06Z"/>
    <path d="M54.38,168.8v2.14h-1.16v1.93h-4.01v-5.16c0-1,.45-1.77,1.36-2.33.91-.55,2.18-.83,3.82-.83s2.75.25,3.51.75,1.14,1.28,1.14,2.32v5.24h-4.01v-5.08c0-.32-.06-.54-.19-.66-.13-.12-.35-.18-.67-.18-.63,0-.94.28-.94.84v1.01h1.16Z"/>
    <path d="M65.82,173.62v-.71c-1.57-.26-2.82-.77-3.76-1.52-.94-.75-1.41-1.62-1.41-2.6,0-1.3.82-2.37,2.45-3.2,1.36-.69,2.9-1.03,4.64-1.03,2.23,0,4.04.49,5.41,1.46,1.11.79,1.66,1.69,1.66,2.72s-.49,1.91-1.47,2.71c-.88.72-2.12,1.21-3.7,1.48v.71h-3.82ZM65.96,169.45h3.55v.91c.79-.41,1.19-.93,1.19-1.55,0-.5-.29-.94-.88-1.31s-1.28-.55-2.08-.55-1.5.18-2.09.55c-.59.37-.88.8-.88,1.31,0,.64.4,1.16,1.19,1.55v-.91Z"/>
    <path d="M86.18,164.75v5.26c0,.93-.46,1.67-1.38,2.22-.92.56-2.14.83-3.67.83s-2.69-.27-3.49-.81c-.81-.54-1.21-1.31-1.21-2.32v-5.19h4.01v5.18c0,.5.29.74.88.74s.85-.25.85-.74v-5.18h4.01Z"/>
    <path d="M95.82,167.91v1.81h-2.62c-.36,0-.61.03-.76.1-.15.06-.22.17-.22.32,0,.17.08.28.23.34.15.05.46.08.93.08h2.7v2.32h-3.15c-1.48,0-2.62-.21-3.4-.64s-1.18-1.04-1.18-1.85v-3.18c0-.78.37-1.38,1.11-1.81.74-.43,1.78-.64,3.13-.64h3.49v2.33h-2.56c-.69,0-1.04.13-1.04.4,0,.16.08.27.25.33.16.06.46.09.88.09h2.21Z"/>
    <path d="M102.39,166.94v5.93h-4.01v-8.12h5.15c1.57,0,2.78.23,3.65.7.96.52,1.44,1.19,1.44,1.99s-.6,1.51-1.79,2.08l2.31,3.35h-4.21l-1.95-2.62v-2.09h.32c.84,0,1.27-.22,1.27-.65,0-.38-.49-.58-1.46-.58h-.71Z"/>
    <path d="M115.38,168.8v2.14h-1.16v1.93h-4.01v-5.16c0-1,.45-1.77,1.36-2.33.91-.55,2.18-.83,3.82-.83s2.75.25,3.51.75,1.14,1.28,1.14,2.32v5.24h-4.01v-5.08c0-.32-.06-.54-.19-.66-.13-.12-.35-.18-.67-.18-.63,0-.94.28-.94.84v1.01h1.16Z"/>
  </g>
  <polygon class="cls-4" points="10.62 136.18 134.59 136.18 146.12 159.83 1.06 159.83 10.62 136.18"/>
  <ellipse class="cls-7" cx="71.12" cy="70.6" rx="52.5" ry="52.57"/>
  <path class="cls-10" d="M71.62,88.59l-16-24.5s0,20.03,1,21.03,4,12.02,4,12.02l5,13.02,1,2-7-2-9-5.01-8-7.01-5-8.01h5l-2-6.01v-13.02l1-15.02,1-7.01-5,1,3-5.01,10-9.01,13-6.01h1.74l-3.74,7.01-1,3,11,20.35,12-23.36-5.74-7.01,10.74,3,8,5.01,6,5.01,5,6.01,2,3-7-2-2-2,2,6.01,1,9.01v20.03l-2,7.01h5l-4,6.01-3,4.01-5,4.01-7,4.01-5,3-4.56,1,2.56-8.01,4-8.01,1.58-6.3,1.42-10.72-.56-8.01-.86-5.39-.58,2.39-14,20.5Z"/>
  <polygon class="cls-10" points="99.62 120.86 106.5 112.65 126.12 133.14 107.48 133.14 99.62 120.86"/>
  <polygon class="cls-10" points="43.12 120.91 36.37 112.7 17.12 133.18 35.4 133.18 43.12 120.91"/>
  <g>
    <polygon class="cls-9" points="107.21 20.69 122.61 20.69 121.05 19.23 118.86 17.77 111.81 17.77 109.39 18.5 107.21 20.69"/>
    <polyline class="cls-9" points="113.76 20.69 113.76 24.51 106.8 24.51 107.93 28.71 109.39 31.63 110.85 32.36 118.63 32.36 121.05 31.63 122.5 27.98 123.23 24.34 116.68 24.34 115.95 24.34 115.86 20.69"/>
  </g>
  <g>
    <polygon class="cls-3" points="62.21 4.66 77.61 4.66 76.05 3.2 73.86 1.74 66.81 1.74 64.39 2.47 62.21 4.66"/>
    <polyline class="cls-3" points="68.76 4.66 68.76 8.48 61.8 8.48 62.93 12.68 64.39 15.6 65.85 16.33 73.63 16.33 76.05 15.6 77.5 11.95 78.23 8.3 71.68 8.3 70.95 8.3 70.86 4.66"/>
  </g>
  <g>
    <polygon class="cls-8" points="14.21 23.69 29.61 23.69 28.05 22.23 25.86 20.77 18.81 20.77 16.39 21.5 14.21 23.69"/>
    <polyline class="cls-8" points="20.76 23.69 20.76 27.51 13.8 27.51 14.93 31.71 16.39 34.63 17.85 35.36 25.63 35.36 28.05 34.63 29.5 30.98 30.23 27.34 23.68 27.34 22.95 27.34 22.86 23.69"/>
  </g>
  <g>
    <polygon class="cls-5" points="1.21 64.74 16.61 64.74 15.05 63.29 12.86 61.83 5.81 61.83 3.39 62.56 1.21 64.74"/>
    <polyline class="cls-5" points="7.76 64.74 7.76 68.56 .8 68.56 1.93 72.77 3.39 75.69 4.85 76.42 12.63 76.42 15.05 75.69 16.5 72.04 17.23 68.39 10.68 68.39 9.95 68.39 9.86 64.74"/>
  </g>
  <g>
    <polygon class="cls-1" points="12.21 103.8 27.61 103.8 26.05 102.34 23.86 100.89 16.81 100.89 14.39 101.61 12.21 103.8"/>
    <polyline class="cls-1" points="18.76 103.8 18.76 107.62 11.8 107.62 12.93 111.83 14.39 114.75 15.85 115.48 23.63 115.48 26.05 114.75 27.5 111.1 28.23 107.45 21.68 107.45 20.95 107.45 20.86 103.8"/>
  </g>
  <g>
    <polygon class="cls-2" points="126.21 64.74 141.61 64.74 140.05 63.29 137.86 61.83 130.81 61.83 128.39 62.56 126.21 64.74"/>
    <polyline class="cls-2" points="132.76 64.74 132.76 68.56 125.8 68.56 126.93 72.77 128.39 75.69 129.85 76.42 137.63 76.42 140.05 75.69 141.5 72.04 142.23 68.39 135.68 68.39 134.95 68.39 134.86 64.74"/>
  </g>
  <g>
    <polygon class="cls-6" points="115.21 103.8 130.61 103.8 129.05 102.35 126.86 100.89 119.81 100.89 117.39 101.62 115.21 103.8"/>
    <polyline class="cls-6" points="121.76 103.8 121.76 107.62 114.8 107.62 115.93 111.83 117.39 114.75 118.85 115.48 126.63 115.48 129.05 114.75 130.5 111.1 131.23 107.45 124.68 107.45 123.95 107.45 123.86 103.8"/>
  </g>
  <g>
    <path class="cls-11" d="M18.95,155.94v-11.1c0-1.38.58-2.5,1.75-3.37,1.17-.87,2.68-1.31,4.55-1.31,2.21,0,3.91.73,5.1,2.18.73-.78,1.5-1.34,2.34-1.68.83-.33,1.86-.5,3.08-.5,1.94,0,3.42.44,4.45,1.31,1.03.87,1.55,2.13,1.55,3.77v10.71h-6.41v-10.02c0-.5-.06-.83-.17-.99s-.33-.24-.67-.24c-.63,0-.95.38-.95,1.15v10.1h-6.41v-10.02c0-.49-.06-.82-.17-.98-.12-.17-.34-.25-.68-.25-.63,0-.95.41-.95,1.23v10.02h-6.41Z"/>
    <path class="cls-11" d="M53.46,148.22v4.06h-1.85v3.67h-6.41v-9.79c0-1.9.72-3.37,2.17-4.42,1.45-1.05,3.48-1.57,6.1-1.57s4.39.48,5.6,1.43c1.21.95,1.82,2.42,1.82,4.41v9.95h-6.41v-9.65c0-.6-.1-1.02-.3-1.25-.2-.23-.56-.35-1.07-.35-1,0-1.5.53-1.5,1.6v1.92h1.85Z"/>
    <path class="cls-11" d="M71.19,144.68v11.26h-6.41v-15.4h8.23c2.5,0,4.45.44,5.83,1.33,1.54.99,2.31,2.25,2.31,3.78s-.95,2.87-2.86,3.94l3.69,6.35h-6.73l-3.11-4.96v-3.96h.51c1.35,0,2.02-.41,2.02-1.24,0-.73-.78-1.09-2.34-1.09h-1.14Z"/>
    <path class="cls-11" d="M90.52,140.54v15.4h-6.41v-15.4h6.41Z"/>
    <path class="cls-11" d="M104.95,140.48v4.39c-.46-.11-.82-.17-1.07-.17-.48,0-.9.13-1.25.38-.35.26-.52.56-.52.92,0,.31.19.7.57,1.17l.49.61c.88,1.1,1.33,2.16,1.33,3.18,0,1.5-.74,2.76-2.23,3.8-1.49,1.04-3.31,1.56-5.45,1.56-1.03,0-2.05-.17-3.06-.51v-4.46c.61.28,1.15.42,1.63.42.56,0,1.02-.11,1.4-.34.37-.23.56-.52.56-.86,0-.23-.3-.72-.9-1.48-.96-1.2-1.44-2.41-1.44-3.61,0-1.45.72-2.7,2.17-3.75,1.45-1.05,3.18-1.57,5.19-1.57.88,0,1.75.11,2.6.32Z"/>
    <path class="cls-11" d="M116.02,148.22v4.06h-1.85v3.67h-6.41v-9.79c0-1.9.72-3.37,2.17-4.42,1.45-1.05,3.48-1.57,6.1-1.57s4.39.48,5.6,1.43c1.21.95,1.82,2.42,1.82,4.41v9.95h-6.41v-9.65c0-.6-.1-1.02-.3-1.25-.2-.23-.56-.35-1.07-.35-1,0-1.5.53-1.5,1.6v1.92h1.85Z"/>
  </g>
</svg>