<?xml version="1.0" encoding="utf-8"?>
<!-- Generator: Adobe Illustrator 28.1.0, SVG Export Plug-In . SVG Version: 6.00 Build 0)  -->
<svg version="1.1" id="Camada_1" xmlns="http://www.w3.org/2000/svg" xmlns:xlink="http://www.w3.org/1999/xlink" x="0px" y="0px"
	 viewBox="0 0 1920 1080" style="enable-background:new 0 0 1920 1080;" xml:space="preserve">
<style type="text/css">
	.st0{fill:#342C86;}
</style>
<polygon class="st0" points="0,-52.2 0,272.12 11.01,278.84 42.62,275.84 67.83,281.99 93.85,277.76 120.07,273.48 141.08,283.42 
	162.01,281.94 182.67,286.49 204.31,280.61 224.35,292.66 244.19,298.58 262.88,308.94 288.33,308.04 303.61,329.03 332.18,313.21 
	348.83,340.29 369.8,345.73 392.02,346 410.8,354.49 393.66,373.09 412.47,387.56 431.42,396.37 450.29,418.53 473.96,428.66 
	500.1,418.03 524.5,418.63 548.64,430.19 572.59,411.74 596.78,423.45 617.31,406.26 642.29,412.81 667.25,416.04 686.99,399.9 
	706.73,383.53 729.73,378.3 756.05,391.1 778.75,390 801.17,379.87 825.62,379.24 842.92,359.77 867.41,357.28 888.15,346.8 
	902.81,326.2 922.57,314.34 949.77,316.85 961.52,287.68 990.55,300.2 1007.52,274.57 1032.44,286.19 1053.9,268.29 1079.03,285.96 
	1100.31,270.52 1123.82,273.32 1146.84,273.72 1169.34,268.38 1192.14,267.18 1215.98,273.66 1239.76,277.71 1263.7,279.18 
	1288.14,275.42 1312.66,272.35 1337.3,268.64 1359.06,274.95 1381.15,282.37 1403.82,277.54 1426.22,279.46 1448.51,282.5 
	1470.18,288.9 1493.33,287.48 1511.77,304.35 1534.99,310.8 1559.38,309.66 1584.68,295.25 1611.22,294.13 1636.72,306.99 
	1660.89,307.74 1686.04,302.02 1709.21,309.01 1732.13,320.3 1756.51,314.81 1780.19,314.47 1805.79,326.58 1825.72,307.18 
	1847.65,300.61 1872.62,314.29 1894.3,298.19 1917.88,298.71 1921,301.11 1921,-52.2 "/>
</svg>
