<?xml version="1.0" encoding="utf-8"?>
<!-- Generator: Adobe Illustrator 28.1.0, SVG Export Plug-In . SVG Version: 6.00 Build 0)  -->
<svg version="1.1" id="Camada_1" xmlns="http://www.w3.org/2000/svg" xmlns:xlink="http://www.w3.org/1999/xlink" x="0px" y="0px"
	 viewBox="0 0 1920 1080" style="enable-background:new 0 0 1920 1080;" xml:space="preserve">
<style type="text/css">
	.st0{fill:#342C86;}
</style>
<path class="st0" d="M1924,1083V576.44c-5.04,1.57-15.24-0.63-20.77-12.69c-4.36,12.85-27.42,43.94-30.58,13.86
	c-2.46,4.43-27.92,20.58-33.92,10.02c-3.72,4.99-25.57-0.85-29.04,3.77c-1.58-1.94-36.68,16.95-36.68,18.77
	c0,6.58-30.09-29.12-30.09-19.01c0,21.21-27.08-26.02-27.08-24.07c0,1.26-33.03,4.68-33.03,1.15c0-1.18-30.53-2.94-30.53-5.05
	c0,5.05-31.16-11.37-31.16-16c0-0.25-29.37,24.59-29.37,26.92c0-27.49-33.19-11.84-33.19-10.22c0,0.43-30.83,16.98-30.83,7.87
	c0,2.18-27.89,16.72-27.89,19.67c0,3.34-32.34,26.58-32.34,7.87c0-12.74-31.02,33.75-31.02,24.64c0-3.85-36.5-29.88-36.5-16.28
	c0,3.37-29.2,16.79-29.2,6.04c0-18.32-29.32,20.47-29.32,14.66c0-3.52-29.68-18.7-29.68-13.13c0-12.66-29.93,28.11-29.93,12.55
	c0-1.3-29.57-2.64-29.57-5.25c0-8.96-28.77-5.88-28.77-13.54c0-3.67-29.21,2.22-29.21-3.93c0,7.3-30.65,6.49-30.65,8.25
	c0-11.79-29.43-10.53-29.43-3.9c0,7.41-29.19-16.02-29.19-5.44c0-6.9-27.46-13.93-27.46-14.44c0-1.71-28.84-13.29-28.84-5.98
	c0-11.6-27.52-16.14-27.52-14.49c0-2.48-29.99,2.14-29.99-3.65c0,13.11-31.56-8.2-31.56,1.91c0-6.86-26.43-11.72-26.43-18
	c0,16.08-34.26,4.8-34.26,11.81c0-2.09-29.66,8.22-29.66-5.34c0,20.36-25.18-12.27-25.18-23.02c0-22.69-29.8-1.02-29.8-4.9
	c0-3.71-32.07,27.28-32.07,6.28c0-7.23-27.27-31.19-27.27-16.16c0-0.28-29.48-11.59-29.48-5.65c0,21.63-30.59-13.92-30.59,3.5
	c0,0.77-27.62-19.49-27.62-29.17c0-20.89-31.33,6.55-31.33,19.05c0-3.98-30.42-8.81-30.42-19.76c0,7.66-30.11,7.52-30.11,11.17
	c0,12.71-30.46-4.32-30.46,2.11c0,14.41-29.19,14.33-29.19,15.24c0-9.97-31.32,6.7-31.32,11.28c0-3.51-32.12-5.57-32.12-11.19
	c0-1.03-34.02,3.13-34.02-13.89c0-21.78-33.85-12.67-33.85-9.32c0,15.9-22.72-9.44-22.72-12.95c0-12.31-25.83-18.76-25.83-5.89
	c0,35.48-24.39,12.96-24.39,15.96c0,9.73-31.52-13.14-31.52-15.02c0-16.95-27.62,15.07-27.62,27.57c0,4.8-32.07-12.09-32.07-21
	c0,16.14-33.15-1.48-29,12.47c-1.35-5.5-32.03-9.16-30.37-1.02c-2.43-3.19-25.13,9.79-29.39,1.68c6.67,25.71-23.01,9.64-31.01-4.18
	c-0.76,5.18-27.44,9.91-29.26,9.69c5.52,4.75-34.25,10.55-29.14,10.8c-2.04,1.51-30.18,10.15-29.94,9.25
	c-0.47-11.48-5.78-17.9-11.74-20.77V1083H1924z"/>
</svg>
