<?xml version="1.0" standalone="no"?><svg xmlns="http://www.w3.org/2000/svg" viewBox="0 0 1440 320"><path fill="#ffd700" fill-opacity="1" d="M0,64L30,96C60,128,120,192,180,202.7C240,213,300,171,360,154.7C420,139,480,149,540,149.3C600,149,660,139,720,117.3C780,96,840,64,900,74.7C960,85,1020,139,1080,144C1140,149,1200,107,1260,90.7C1320,75,1380,85,1410,90.7L1440,96L1440,320L1410,320C1380,320,1320,320,1260,320C1200,320,1140,320,1080,320C1020,320,960,320,900,320C840,320,780,320,720,320C660,320,600,320,540,320C480,320,420,320,360,320C300,320,240,320,180,320C120,320,60,320,30,320L0,320Z"></path></svg>