<?xml version="1.0" encoding="utf-8"?>
<!-- Generator: Adobe Illustrator 28.1.0, SVG Export Plug-In . SVG Version: 6.00 Build 0)  -->
<svg version="1.1" id="Camada_1" xmlns="http://www.w3.org/2000/svg" xmlns:xlink="http://www.w3.org/1999/xlink" x="0px" y="0px"
	 viewBox="0 0 125 125" style="enable-background:new 0 0 125 125;" xml:space="preserve">
<style type="text/css">
	.st0{fill:#EBF6F8;}
	.st1{fill:#E63220;}
	.st2{opacity:0.3;fill:#919191;}
	.st3{opacity:0.4;}
	.st4{fill:url(#SVGID_1_);}
	.st5{opacity:0.4;fill:#919191;}
	.st6{fill:#54110D;}
	.st7{opacity:0.6;fill:#54110D;}
	.st8{fill:#935415;}
	.st9{fill:#DA8B40;}
	.st10{opacity:0.4;fill:#976014;}
	.st11{fill:url(#SVGID_00000086684407471784794290000014348366405004810413_);}
	.st12{opacity:0.5;fill:#DA8B40;}
	.st13{fill:#7B797A;}
	.st14{fill:#892716;}
	.st15{fill:#B79392;}
	.st16{fill:#FDC20F;}
	.st17{opacity:0.3;fill:#CD9C5F;}
	.st18{fill:#8E4F14;}
	.st19{fill:#E8451F;}
	.st20{fill:#901E18;}
	.st21{fill:#FCD7BB;}
	.st22{fill:#D68A33;}
	.st23{opacity:0.3;fill:#D68A33;}
	.st24{opacity:0.5;fill:#CD9C5F;}
	.st25{opacity:0.5;fill:#D07C10;}
	.st26{fill:#FBBD5D;}
	.st27{fill:#FBF297;}
	.st28{fill:#D59C38;}
	.st29{fill:#392818;}
	.st30{fill:#D32816;}
	.st31{fill:#FFFFFF;}
	.st32{opacity:0.4;fill:#FBF297;}
</style>
<g>
	<g>
		<rect x="14.03" y="54.3" class="st0" width="96.63" height="70.7"/>
		<g>
			<rect x="14.03" y="54.3" class="st1" width="9.95" height="70.7"/>
			<rect x="35.5" y="54.3" class="st1" width="11.06" height="70.7"/>
			<rect x="58.08" y="54.3" class="st1" width="11.06" height="70.7"/>
			<rect x="80.66" y="54.3" class="st1" width="11.06" height="70.7"/>
			<rect x="103.23" y="54.3" class="st1" width="7.43" height="70.7"/>
		</g>
		<rect x="14.03" y="54.3" class="st2" width="96.63" height="70.7"/>
		<g class="st3">
			<linearGradient id="SVGID_1_" gradientUnits="userSpaceOnUse" x1="62.3467" y1="59.8977" x2="62.3467" y2="54.3044">
				<stop  offset="0" style="stop-color:#FFFFFF"/>
				<stop  offset="0.7946" style="stop-color:#B79392"/>
			</linearGradient>
			<rect x="14.03" y="54.3" class="st4" width="96.63" height="5.59"/>
		</g>
		<path class="st5" d="M108.73,80.69c-1.2,5.15-2.9,10.19-4.74,15.19c-1.73,4.69-3.98,9.25-7.87,12.93
			c-3.55,3.35-8.38,5.91-13.14,7.78c-9.69,3.81-20.27,5.35-30.81,3.7c-4.87-0.77-9.69-2.32-13.91-4.56
			c-4.87-2.59-8.87-5.96-12.26-9.93c-6.55-7.67-10.11-16.56-11.98-25.83V125h96.63V70.03C110.18,73.61,109.56,77.16,108.73,80.69z"
			/>
	</g>
	<g>
		<rect x="31.89" y="51.78" class="st6" width="62.44" height="41.3"/>
		<path class="st7" d="M57.92,67.23c5.65-0.77,11.69-0.66,17.25,0.55c5.48,1.19,10.6,3.63,14.91,6.77c1.53,1.12,2.94,2.33,4.26,3.62
			v-26.4H31.89v27.68C38.68,73.04,47.87,68.61,57.92,67.23z"/>
		<g>
			<g>
				<rect x="33.44" y="50.14" class="st8" width="1.23" height="42.64"/>
				<polygon class="st9" points="30.34,51.79 30.34,91.21 33.44,92.78 33.44,50.14 				"/>
			</g>
			<polygon class="st10" points="34.67,58.6 34.67,50.14 33.44,50.14 30.34,51.79 30.34,58.6 			"/>
		</g>
		<g>
			<g>
				<rect x="90.7" y="50.14" class="st8" width="1.23" height="42.64"/>
				<polygon class="st9" points="95.03,51.79 95.03,91.21 91.93,92.78 91.93,50.14 				"/>
			</g>
			<polygon class="st10" points="90.7,58.6 90.7,50.14 91.93,50.14 95.03,51.79 95.03,58.6 			"/>
		</g>
		
			<linearGradient id="SVGID_00000098924274694003390040000007694652811665916341_" gradientUnits="userSpaceOnUse" x1="62.5872" y1="105.9424" x2="62.5872" y2="94.4654">
			<stop  offset="0" style="stop-color:#FFFFFF"/>
			<stop  offset="0.7946" style="stop-color:#B79392"/>
		</linearGradient>
		
			<rect x="27.43" y="94.47" style="fill:url(#SVGID_00000098924274694003390040000007694652811665916341_);" width="70.31" height="11.48"/>
		<rect x="27.43" y="91.09" class="st9" width="70.31" height="3.38"/>
		<path class="st12" d="M28.58,91.09c0.22,0.1,0.45,0.19,0.67,0.28c2.59,1,14.94,1.5,18.28,1.52c6.82,0.06,13.63,0.12,20.45,0.16
			c6.55,0.04,25.88-1.12,28.79-1.96H28.58z"/>
	</g>
	<g>
		<path class="st13" d="M21.53,53.35c0,1.33-1.47,2.41-3.28,2.41h-1.78c-1.81,0-3.28-1.08-3.28-2.41V42.41
			c0-1.33,1.47-2.41,3.28-2.41h1.78c1.81,0,3.28,1.08,3.28,2.41V53.35z"/>
		<path class="st0" d="M21.23,53.02c0,1.32-1.42,2.38-3.17,2.38h-1.72c-1.75,0-3.18-1.06-3.18-2.38V42.2c0-1.32,1.42-2.38,3.18-2.38
			h1.72c1.75,0,3.17,1.07,3.17,2.38V53.02z"/>
		<path class="st14" d="M29.71,53.35c0,1.33-1.47,2.41-3.28,2.41h-1.78c-1.82,0-3.28-1.08-3.28-2.41V42.41
			c0-1.33,1.46-2.41,3.28-2.41h1.78c1.81,0,3.28,1.08,3.28,2.41V53.35z"/>
		<path class="st13" d="M37.93,53.35c0,1.33-1.47,2.41-3.28,2.41h-1.78c-1.81,0-3.28-1.08-3.28-2.41V42.41
			c0-1.33,1.46-2.41,3.28-2.41h1.78c1.81,0,3.28,1.08,3.28,2.41V53.35z"/>
		<path class="st0" d="M37.62,53.02c0,1.32-1.42,2.38-3.18,2.38h-1.72c-1.76,0-3.17-1.06-3.17-2.38V42.2c0-1.32,1.42-2.38,3.17-2.38
			h1.72c1.75,0,3.18,1.07,3.18,2.38V53.02z"/>
		<path class="st1" d="M29.41,53.02c0,1.32-1.42,2.38-3.18,2.38h-1.72c-1.75,0-3.17-1.06-3.17-2.38V42.2c0-1.32,1.43-2.38,3.17-2.38
			h1.72c1.75,0,3.18,1.07,3.18,2.38V53.02z"/>
		<path class="st14" d="M46.1,53.35c0,1.33-1.47,2.41-3.28,2.41h-1.77c-1.81,0-3.28-1.08-3.28-2.41V42.41
			c0-1.33,1.47-2.41,3.28-2.41h1.77c1.82,0,3.28,1.08,3.28,2.41V53.35z"/>
		<path class="st1" d="M45.8,53.02c0,1.32-1.42,2.38-3.18,2.38h-1.71c-1.76,0-3.17-1.06-3.17-2.38V42.2c0-1.32,1.42-2.38,3.17-2.38
			h1.71c1.76,0,3.18,1.07,3.18,2.38V53.02z"/>
		<path class="st13" d="M54.27,53.35c0,1.33-1.46,2.41-3.28,2.41h-1.78c-1.81,0-3.28-1.08-3.28-2.41V42.41
			c0-1.33,1.47-2.41,3.28-2.41h1.78c1.81,0,3.28,1.08,3.28,2.41V53.35z"/>
		<path class="st0" d="M53.97,53.02c0,1.32-1.42,2.38-3.17,2.38h-1.72c-1.75,0-3.17-1.06-3.17-2.38V42.2c0-1.32,1.42-2.38,3.17-2.38
			h1.72c1.75,0,3.17,1.07,3.17,2.38V53.02z"/>
		<path class="st14" d="M62.45,53.35c0,1.33-1.47,2.41-3.28,2.41h-1.78c-1.81,0-3.27-1.08-3.27-2.41V42.41
			c0-1.33,1.46-2.41,3.27-2.41h1.78c1.81,0,3.28,1.08,3.28,2.41V53.35z"/>
		<path class="st13" d="M70.66,53.35c0,1.33-1.47,2.41-3.28,2.41H65.6c-1.81,0-3.28-1.08-3.28-2.41V42.41
			c0-1.33,1.47-2.41,3.28-2.41h1.78c1.81,0,3.28,1.08,3.28,2.41V53.35z"/>
		<path class="st0" d="M70.36,53.02c0,1.32-1.42,2.38-3.18,2.38h-1.72c-1.75,0-3.17-1.06-3.17-2.38V42.2c0-1.32,1.42-2.38,3.17-2.38
			h1.72c1.76,0,3.18,1.07,3.18,2.38V53.02z"/>
		<path class="st1" d="M62.15,53.02c0,1.32-1.43,2.38-3.17,2.38h-1.72c-1.76,0-3.17-1.06-3.17-2.38V42.2c0-1.32,1.42-2.38,3.17-2.38
			h1.72c1.75,0,3.17,1.07,3.17,2.38V53.02z"/>
		<path class="st14" d="M78.84,53.35c0,1.33-1.47,2.41-3.28,2.41h-1.77c-1.82,0-3.28-1.08-3.28-2.41V42.41
			c0-1.33,1.46-2.41,3.28-2.41h1.77c1.81,0,3.28,1.08,3.28,2.41V53.35z"/>
		<path class="st1" d="M78.54,53.02c0,1.32-1.42,2.38-3.18,2.38h-1.72c-1.75,0-3.17-1.06-3.17-2.38V42.2c0-1.32,1.42-2.38,3.17-2.38
			h1.72c1.76,0,3.18,1.07,3.18,2.38V53.02z"/>
		<path class="st13" d="M87,53.35c0,1.33-1.46,2.41-3.28,2.41h-1.77c-1.81,0-3.28-1.08-3.28-2.41V42.41c0-1.33,1.47-2.41,3.28-2.41
			h1.77c1.82,0,3.28,1.08,3.28,2.41V53.35z"/>
		<path class="st0" d="M86.7,53.02c0,1.32-1.42,2.38-3.17,2.38h-1.72c-1.75,0-3.18-1.06-3.18-2.38V42.2c0-1.32,1.42-2.38,3.18-2.38
			h1.72c1.76,0,3.17,1.07,3.17,2.38V53.02z"/>
		<path class="st14" d="M95.19,53.35c0,1.33-1.47,2.41-3.28,2.41h-1.78c-1.81,0-3.28-1.08-3.28-2.41V42.41
			c0-1.33,1.47-2.41,3.28-2.41h1.78c1.81,0,3.28,1.08,3.28,2.41V53.35z"/>
		<path class="st13" d="M103.4,53.35c0,1.33-1.47,2.41-3.28,2.41h-1.78c-1.81,0-3.28-1.08-3.28-2.41V42.41
			c0-1.33,1.47-2.41,3.28-2.41h1.78c1.81,0,3.28,1.08,3.28,2.41V53.35z"/>
		<path class="st0" d="M103.1,53.02c0,1.32-1.42,2.38-3.18,2.38H98.2c-1.76,0-3.17-1.06-3.17-2.38V42.2c0-1.32,1.42-2.38,3.17-2.38
			h1.72c1.76,0,3.18,1.07,3.18,2.38V53.02z"/>
		<path class="st1" d="M94.88,53.02c0,1.32-1.42,2.38-3.17,2.38h-1.72c-1.75,0-3.17-1.06-3.17-2.38V42.2c0-1.32,1.42-2.38,3.17-2.38
			h1.72c1.75,0,3.17,1.07,3.17,2.38V53.02z"/>
		<path class="st14" d="M111.58,53.35c0,1.33-1.47,2.41-3.28,2.41h-1.78c-1.81,0-3.28-1.08-3.28-2.41V42.41
			c0-1.33,1.47-2.41,3.28-2.41h1.78c1.81,0,3.28,1.08,3.28,2.41V53.35z"/>
		<path class="st1" d="M111.27,53.02c0,1.32-1.42,2.38-3.17,2.38h-1.72c-1.75,0-3.17-1.06-3.17-2.38V42.2
			c0-1.32,1.42-2.38,3.17-2.38h1.72c1.76,0,3.17,1.07,3.17,2.38V53.02z"/>
	</g>
	<path class="st15" d="M17.89,46.9h88.97c2,0,3.78,0.99,4.72,2.42v-6.91c0-0.75-0.46-1.41-1.19-1.86c-0.58-0.45-1.39-0.74-2.29-0.74
		h-1.72c-1.54,0-2.83,0.83-3.12,1.92c-0.18-0.47-0.55-0.88-1.05-1.19c-0.58-0.45-1.39-0.74-2.29-0.74H98.2
		c-1.57,0-2.88,0.86-3.12,1.98c-0.18-0.49-0.55-0.93-1.08-1.25c-0.58-0.45-1.39-0.74-2.3-0.74h-1.72c-1.54,0-2.82,0.83-3.11,1.92
		c-0.18-0.47-0.56-0.88-1.05-1.19c-0.57-0.45-1.39-0.74-2.29-0.74h-1.72c-1.53,0-2.81,0.81-3.11,1.89
		c-0.19-0.46-0.56-0.86-1.04-1.16c-0.58-0.45-1.39-0.74-2.29-0.74h-1.72c-1.54,0-2.82,0.83-3.11,1.92
		c-0.18-0.47-0.56-0.88-1.06-1.19c-0.57-0.45-1.39-0.74-2.29-0.74h-1.72c-1.57,0-2.87,0.86-3.13,1.98
		c-0.17-0.49-0.55-0.93-1.07-1.25c-0.58-0.45-1.39-0.74-2.29-0.74h-1.72c-1.55,0-2.83,0.83-3.11,1.92
		c-0.19-0.47-0.56-0.88-1.06-1.19c-0.58-0.45-1.39-0.74-2.29-0.74h-1.72c-1.52,0-2.81,0.81-3.11,1.89
		c-0.19-0.46-0.56-0.86-1.04-1.16c-0.58-0.45-1.39-0.74-2.29-0.74h-1.71c-1.55,0-2.83,0.83-3.12,1.92
		c-0.19-0.47-0.56-0.88-1.05-1.19c-0.58-0.45-1.39-0.74-2.3-0.74h-1.72c-1.57,0-2.88,0.86-3.13,1.98c-0.18-0.49-0.56-0.93-1.08-1.25
		c-0.58-0.45-1.39-0.74-2.29-0.74h-1.72c-1.54,0-2.82,0.83-3.11,1.92c-0.18-0.47-0.56-0.88-1.05-1.19
		c-0.58-0.45-1.39-0.74-2.29-0.74h-1.72c-1.75,0-3.18,1.07-3.18,2.38v7.15C14.09,47.9,15.87,46.9,17.89,46.9z"/>
	<g>
		<path class="st16" d="M9.02,36.17h107.56V24.58c0,0-7.53,3.02-13.93-2.29C96.25,16.97,92.63,2.96,61.44,2.6
			C30.25,2.24,25.3,24.26,16.33,26.02c-3.06,0.61-6.55-1.45-6.55-1.45L9.02,36.17z"/>
		<path class="st17" d="M102.65,22.28c-1.31-1.09-2.51-2.55-3.85-4.18c-0.27,2.5-1.36,4.82-3.33,6.92
			c-2.78,2.95-7.12,4.24-11.28,4.95c-4.86,0.82-9.86,1.12-14.8,1.04c-6.12-0.11-12.23-0.58-18.34-0.91
			c-4.71-0.25-9.6-0.52-14.12-1.76c-5.23-1.44-10.37-4.25-12.04-9.04c-3.12,3.41-5.62,6.14-8.55,6.72
			c-3.06,0.61-6.55-1.45-6.55-1.45L9.02,36.17h107.56V24.58C116.58,24.58,109.06,27.6,102.65,22.28z"/>
		<path class="st17" d="M104.36,23.5c0.15,0.68,0.2,1.36,0.11,2.03c-1.28,9.02-16.37,8.01-23.75,7.54
			c-10.4-0.66-20.82-0.66-31.24-0.68c-8.28-0.02-21.1,1.82-28.72-1.67c-2.2-1.01-3.48-2.91-3.58-4.91
			c-0.28,0.09-0.56,0.17-0.85,0.23c-3.06,0.61-6.55-1.45-6.55-1.45L9.02,36.17h107.56V24.58C116.58,24.58,110.32,27.09,104.36,23.5z
			"/>
		<g>
			<path class="st18" d="M10.81,39.78h1.41v2.82h-1.9C10.32,42.6,11.23,41.83,10.81,39.78z"/>
			<g>
				<path class="st19" d="M11.42,40.94c0,1.15-0.98,2.08-2.19,2.08c-1.21,0-2.19-0.93-2.19-2.08c0-1.15,0.98-2.08,2.19-2.08
					C10.44,38.86,11.42,39.79,11.42,40.94z"/>
				<path class="st20" d="M9.47,38.87c0.28,0.08,0.53,0.21,0.74,0.42c0.32,0.31,0.51,0.7,0.53,1.13c0.03,0.53-0.3,0.99-0.74,1.27
					c-0.41,0.26-1,0.34-1.47,0.22c-0.27-0.07-0.5-0.2-0.7-0.38c-0.21-0.19-0.31-0.39-0.41-0.64c-0.15-0.36-0.09-0.92,0.15-1.23
					c0.12-0.14,0.23-0.29,0.37-0.4c0.02-0.02,0.04-0.03,0.05-0.05c-0.59,0.37-0.97,1.01-0.97,1.72c0,1.15,0.98,2.08,2.19,2.08
					c1.21,0,2.19-0.93,2.19-2.08C11.42,39.87,10.57,39,9.47,38.87z"/>
				<path class="st21" d="M9.13,39.1c-0.31-0.24-0.94-0.02-1.25,0.34c-0.35,0.42-0.3,0.85,0.01,1.09c0.32,0.23,0.93,0.02,1.25-0.35
					C9.51,39.76,9.45,39.33,9.13,39.1z"/>
			</g>
		</g>
		<g>
			<path class="st18" d="M113.92,39.78h-1.41v2.82h1.9C114.4,42.6,113.49,41.83,113.92,39.78z"/>
			<g>
				<path class="st19" d="M113.3,40.94c0,1.15,0.98,2.08,2.19,2.08c1.21,0,2.19-0.93,2.19-2.08c0-1.15-0.98-2.08-2.19-2.08
					C114.28,38.86,113.3,39.79,113.3,40.94z"/>
				<path class="st20" d="M115.25,38.87c-0.28,0.08-0.53,0.21-0.75,0.42c-0.32,0.31-0.5,0.7-0.53,1.13
					c-0.03,0.53,0.3,0.99,0.75,1.27c0.4,0.26,0.99,0.34,1.46,0.22c0.27-0.07,0.5-0.2,0.71-0.38c0.21-0.19,0.31-0.39,0.41-0.64
					c0.15-0.36,0.09-0.92-0.15-1.23c-0.11-0.14-0.23-0.29-0.37-0.4c-0.02-0.02-0.03-0.03-0.05-0.05c0.59,0.37,0.97,1.01,0.97,1.72
					c0,1.15-0.98,2.08-2.19,2.08c-1.21,0-2.19-0.93-2.19-2.08C113.3,39.87,114.15,39,115.25,38.87z"/>
				<path class="st21" d="M115.59,39.1c0.32-0.24,0.94-0.02,1.25,0.34c0.36,0.42,0.3,0.85-0.01,1.09c-0.32,0.23-0.94,0.02-1.25-0.35
					C115.22,39.76,115.27,39.33,115.59,39.1z"/>
			</g>
		</g>
		<g>
			<rect x="11.84" y="36.56" class="st22" width="101.08" height="8.52"/>
			<path class="st23" d="M17.27,38.67h91.06c1.87,0,3.55,0.8,4.59,2.03v-4.14H11.84v5.54C12.6,40.12,14.76,38.67,17.27,38.67z"/>
		</g>
		<g>
			<path class="st22" d="M10.74,24.49c0,0,0.68,3.32,6.11,2.72c5.43-0.6,9.47-7.85,12.39-10.99C32.16,13.07,44.42,3.9,62.66,4.26
				C80.9,4.62,88.83,9.45,96.91,18.03c8.08,8.58,11.56,9.54,18.24,8.94l0.28-5.92c0,0-6.54,3.26-11.28-0.84
				C99.41,16.09,94.1,1.58,61.69,0.03c-10.17-0.48-26.74,4.71-35.51,14.5c-8.77,9.78-7.92,7.75-11.13,6.89L10.74,24.49z"/>
			<g>
				<path class="st24" d="M105.12,20.93c0.81,1.36,0.19,1.27-1.53,0.48c-2.36-1.09-5.92-4.92-10.51-9.03
					c-4.59-4.11-14.97-9.24-30.28-9.6C47.48,2.42,33.77,10.33,30,13.83c-3.76,3.5-7.59,7.58-8.84,8.18
					c-1.25,0.6-0.41-1.33,1.67-3.74c0.19-0.22,0.38-0.46,0.56-0.7c-5.85,6.27-5.53,4.6-8.35,3.85l-4.31,3.07
					c0,0,0.68,3.32,6.11,2.72c5.43-0.6,9.47-7.85,12.39-10.99C32.16,13.07,44.42,3.9,62.66,4.26C80.9,4.62,88.83,9.45,96.91,18.03
					c8.08,8.58,11.56,9.54,18.24,8.94l0.28-5.92C115.43,21.04,109.73,23.88,105.12,20.93z"/>
			</g>
			<g>
				<path class="st22" d="M67.98,34.39H11.84v-8.34c0.55,0.46,1.26,0.77,2.08,0.86c3.89,0.44,5.65-3.95,4.75-6.61
					c-0.57-1.7-2.39-2.93-4.29-3.41c-2.16-0.54-4.3,0.07-5.79,1.5c-1.32,1.26-1.85,2.83-2.04,4.46h0v0.04
					c-0.13,1.14-0.1,2.3-0.06,3.41c0,0.04,0,0.1,0,0.19l0.06,11.1h61.44V34.39z"/>
				<path class="st24" d="M18.67,20.3c-0.57-1.7-2.39-2.93-4.29-3.41c-0.33-0.08-0.66-0.13-0.99-0.16c2.58,0.62,4.79,2.29,4.76,4.79
					c-0.02,1.74-1.04,3.72-3.27,3.93c-1.56,0.14-4.09-0.48-3.87-2.24c0.1-0.83,0.8-1.4,1.73-1.55c0.58-0.09,1.69,0.03,1.85,0.65
					c0.25,0.92-0.83,1.11-1.4,0.7c-0.56,1.14,1.33,1.53,2.11,0.85c0.78-0.69,0.51-1.83-0.26-2.45c-0.86-0.69-2.13-0.86-3.24-0.53
					c-2,0.6-2.63,2.67-1.91,4.28c0.44,0.98,1.32,1.74,1.8,2.7c0.05,0.1,0.1,0.21,0.14,0.31v-2.14c0.55,0.46,1.26,0.77,2.08,0.86
					C17.81,27.35,19.57,22.96,18.67,20.3z"/>
				<path class="st24" d="M7.45,36.1c-0.48,0-0.78-0.23-0.92-0.53l0.01,2.03h61.44v-1.5H7.45z"/>
				<path class="st25" d="M18.67,20.3c-0.57-1.7-2.39-2.93-4.29-3.41c-2.16-0.54-4.3,0.07-5.79,1.5c-2.25,2.14-2.2,5.2-2.11,7.91
					c0,0.07,0.02-0.84,0.02-0.91c0.08-2.28,0.19-3.75,1.5-5.8c1.27-1.98,3.65-2.98,6.2-2.45c2.16,0.45,4,1.99,4.33,3.93
					c0.28,1.63-0.31,3.49-1.65,4.67c-1.18,1.04-3.18,1.24-4.53,0.34c-1.09-0.72-1.63-2.05-1.5-3.2c0.06-0.51,0.27-1.04,0.73-1.38
					c0.53-0.4,1.26-0.4,1.91-0.28c0.79,0.15,1.24,0.48,1.34,1.17c0.12,0.92-0.78,1.23-1.51,0.99c-0.02-0.01-0.04,0.02-0.02,0.03
					c1.01,0.72,2.04-0.19,1.86-1.11c-0.23-1.16-2.06-1.6-3.2-1.2c-1.52,0.53-1.64,2.14-1.2,3.38c0.46,1.29,1.63,2.25,3.18,2.42
					C17.81,27.35,19.57,22.96,18.67,20.3z"/>
				<path class="st26" d="M6.89,34.03c0-3.38,0-6.95,0-9c0-2.06,0.28-5.31,3.34-7.19c3.07-1.87,7.45,0.36,7.52,3.32
					c0.06,2.96-2.16,4.11-4.25,3.8c-2.08-0.3-2.26-1.24-2.02-2.02c0.25-0.79,1.78-1.54,2.75-0.7c0.21,0.18-0.01,0.72-0.97,0.48
					c-0.25-0.05-0.28-0.21-0.28-0.21s-0.62,0.21-0.56,1.03c0.07,0.82,1.74,1.06,2.82,0.73c1.07-0.33,2.12-2.3,0.34-3.75
					c-1.78-1.45-4.98-1.27-6.13,0.88c-1.15,2.14-0.45,4.26-0.45,4.26c0.45,1.45,1.01,3.26,1.01,5.62c0,2.35,0.34,4.26-1.04,4.26
					C7.59,35.53,6.89,35.51,6.89,34.03z"/>
				<path class="st27" d="M16.58,19.19c-0.87-1.45-2.96-1.98-4.7-1.59c-1.64,0.36-3.2,1.64-3.78,3.02
					c-0.01,0.02,0.03,0.05,0.04,0.02c0.93-1.18,1.98-2.19,3.58-2.66c0.76-0.22,1.57-0.24,2.35-0.07c0.5,0.1,0.99,0.3,1.41,0.55
					c0.39,0.23,0.67,0.54,1.02,0.8C16.55,19.3,16.61,19.24,16.58,19.19z"/>
				<path class="st27" d="M16.97,19.48c-0.05-0.01-0.09-0.01-0.13-0.01c-0.16,0-0.14,0.21,0.01,0.21c0.05,0,0.09,0,0.13-0.01
					C17.11,19.64,17.07,19.51,16.97,19.48z"/>
				<path class="st27" d="M13.99,22.3c-0.16-0.44-0.86-0.38-1.24-0.23c-0.42,0.17-0.8,0.54-0.88,0.94c0,0.02,0.04,0.04,0.04,0.01
					c0.14-0.35,0.45-0.59,0.83-0.73c0.18-0.07,0.36-0.09,0.55-0.07c0.21,0.02,0.34,0.16,0.53,0.22
					C13.92,22.47,14.03,22.4,13.99,22.3z"/>
				<path class="st27" d="M7.89,21.24c-1.17,1.67-0.78,3.91-0.77,5.78c0.01,1.2,0.09,2.41,0.13,3.61c0.04,1.25-0.06,2.51,0.01,3.76
					c0,0.03,0.06,0.03,0.06,0c0.16-2.29,0.13-4.59,0.07-6.88c-0.03-1.02-0.07-2.04-0.1-3.06c-0.02-1.09,0.06-2.21,0.65-3.19
					C7.96,21.24,7.91,21.22,7.89,21.24z"/>
			</g>
			<g>
				<path class="st22" d="M57.55,34.39h56.15v-8.34c-0.56,0.46-1.27,0.77-2.08,0.86c-3.89,0.44-5.65-3.95-4.76-6.61
					c0.58-1.7,2.38-2.93,4.29-3.41c2.16-0.54,4.31,0.07,5.79,1.5c1.32,1.26,1.85,2.83,2.04,4.46h0v0.04c0.13,1.14,0.1,2.3,0.07,3.41
					c-0.01,0.04,0,0.1,0,0.19l-0.07,11.1H57.55V34.39z"/>
				<path class="st24" d="M106.86,20.3c0.58-1.7,2.38-2.93,4.29-3.41c0.33-0.08,0.66-0.13,0.99-0.16c-2.58,0.62-4.79,2.29-4.76,4.79
					c0.02,1.74,1.04,3.72,3.27,3.93c1.56,0.14,4.09-0.48,3.87-2.24c-0.1-0.83-0.8-1.4-1.73-1.55c-0.58-0.09-1.69,0.03-1.85,0.65
					c-0.25,0.92,0.83,1.11,1.4,0.7c0.56,1.14-1.33,1.53-2.11,0.85c-0.78-0.69-0.51-1.83,0.26-2.45c0.86-0.69,2.13-0.86,3.23-0.53
					c2.01,0.6,2.63,2.67,1.91,4.28c-0.44,0.98-1.33,1.74-1.8,2.7c-0.05,0.1-0.1,0.21-0.14,0.31v-2.14
					c-0.56,0.46-1.27,0.77-2.08,0.86C107.72,27.35,105.96,22.96,106.86,20.3z"/>
				<path class="st24" d="M118.08,36.1c0.48,0,0.78-0.23,0.92-0.53l-0.01,2.03H57.55v-1.5H118.08z"/>
				<path class="st25" d="M106.86,20.3c0.58-1.7,2.38-2.93,4.29-3.41c2.16-0.54,4.31,0.07,5.79,1.5c2.25,2.14,2.2,5.2,2.11,7.91
					c-0.01,0.07-0.03-0.84-0.03-0.91c-0.08-2.28-0.18-3.75-1.49-5.8c-1.27-1.98-3.65-2.98-6.2-2.45c-2.16,0.45-4,1.99-4.34,3.93
					c-0.28,1.63,0.32,3.49,1.66,4.67c1.18,1.04,3.17,1.24,4.53,0.34c1.09-0.72,1.63-2.05,1.5-3.2c-0.05-0.51-0.27-1.04-0.73-1.38
					c-0.53-0.4-1.26-0.4-1.91-0.28c-0.79,0.15-1.23,0.48-1.33,1.17c-0.13,0.92,0.77,1.23,1.5,0.99c0.03-0.01,0.04,0.02,0.02,0.03
					c-1.01,0.72-2.04-0.19-1.86-1.11c0.23-1.16,2.05-1.6,3.2-1.2c1.52,0.53,1.64,2.14,1.2,3.38c-0.46,1.29-1.62,2.25-3.18,2.42
					C107.72,27.35,105.96,22.96,106.86,20.3z"/>
				<path class="st26" d="M118.64,34.03c0-3.38,0-6.95,0-9c0-2.06-0.28-5.31-3.34-7.19c-3.06-1.87-7.45,0.36-7.52,3.32
					c-0.07,2.96,2.16,4.11,4.25,3.8c2.09-0.3,2.26-1.24,2.02-2.02c-0.24-0.79-1.77-1.54-2.75-0.7c-0.21,0.18,0.02,0.72,0.98,0.48
					c0.24-0.05,0.28-0.21,0.28-0.21s0.62,0.21,0.55,1.03c-0.07,0.82-1.74,1.06-2.82,0.73c-1.08-0.33-2.12-2.3-0.35-3.75
					c1.78-1.45,4.97-1.27,6.13,0.88c1.15,2.14,0.45,4.26,0.45,4.26c-0.45,1.45-1,3.26-1,5.62c0,2.35-0.35,4.26,1.04,4.26
					C117.94,35.53,118.64,35.51,118.64,34.03z"/>
				<path class="st27" d="M108.95,19.19c0.87-1.45,2.96-1.98,4.69-1.59c1.65,0.36,3.2,1.64,3.78,3.02c0.01,0.02-0.02,0.05-0.04,0.02
					c-0.93-1.18-1.98-2.19-3.58-2.66c-0.76-0.22-1.57-0.24-2.35-0.07c-0.5,0.1-0.99,0.3-1.41,0.55c-0.38,0.23-0.67,0.54-1.02,0.8
					C108.98,19.3,108.92,19.24,108.95,19.19z"/>
				<path class="st27" d="M108.56,19.48c0.04-0.01,0.09-0.01,0.14-0.01c0.16,0,0.14,0.21-0.02,0.21c-0.05,0-0.09,0-0.13-0.01
					C108.42,19.64,108.46,19.51,108.56,19.48z"/>
				<path class="st27" d="M111.54,22.3c0.16-0.44,0.86-0.38,1.24-0.23c0.42,0.17,0.8,0.54,0.89,0.94c0,0.02-0.04,0.04-0.05,0.01
					c-0.14-0.35-0.45-0.59-0.83-0.73c-0.17-0.07-0.36-0.09-0.55-0.07c-0.21,0.02-0.34,0.16-0.53,0.22
					C111.61,22.47,111.5,22.4,111.54,22.3z"/>
				<path class="st27" d="M117.64,21.24c1.17,1.67,0.78,3.91,0.77,5.78c-0.01,1.2-0.08,2.41-0.12,3.61
					c-0.05,1.25,0.06,2.51-0.01,3.76c0,0.03-0.07,0.03-0.07,0c-0.15-2.29-0.12-4.59-0.06-6.88c0.03-1.02,0.06-2.04,0.09-3.06
					c0.03-1.09-0.06-2.21-0.65-3.19C117.57,21.24,117.62,21.22,117.64,21.24z"/>
			</g>
			<path class="st26" d="M118.19,34.98c0,0.32-0.3,0.59-0.67,0.59H8.23c-0.37,0-0.67-0.27-0.67-0.59l0,0c0-0.33,0.3-0.59,0.67-0.59
				h109.29C117.89,34.39,118.19,34.65,118.19,34.98L118.19,34.98z"/>
			<path class="st27" d="M113.89,34.71c-2.92,0.31-68.31,0.19-68.31,0.19c-0.37,0-35.32-0.29-34.95-0.29h104.74
				C115.74,34.61,113.89,34.71,113.89,34.71z"/>
			<path class="st26" d="M24.49,18.5c0,0,0.16-0.26,0.5-0.74c0.34-0.47,0.86-1.17,1.6-2C30,11.87,34.4,8.81,39.37,6.52
				c2.11-0.97,4.42-1.84,6.89-2.56c2.47-0.72,5.08-1.28,7.77-1.66c2.7-0.38,5.47-0.6,8.23-0.63c10.63-0.11,21.36,3.34,29.76,8.92
				c0.39,0.26,0.78,0.53,1.14,0.79c1.8,1.34,3.39,2.79,5.04,4.26c0.43,0.38,0.76,0.75,1.06,1.06c0.3,0.31,0.55,0.58,0.76,0.8
				c0.41,0.42,0.62,0.65,0.62,0.66C94.5,11.69,83.61,5.74,74.25,3.76c-0.63-0.13-1.28-0.27-1.93-0.41
				C61.64,1.08,49.43,2.72,39.76,7.16c-4.82,2.21-9.3,5.25-12.93,8.77c-0.8,0.78-1.39,1.42-1.77,1.87
				C24.67,18.25,24.49,18.5,24.49,18.5z"/>
			<path class="st27" d="M24.49,17.87c0,0,0.16-0.27,0.5-0.74c0.34-0.48,0.86-1.17,1.6-2C30,11.24,34.4,8.17,39.37,5.89
				c2.11-0.97,4.42-1.85,6.89-2.56c2.47-0.72,5.08-1.28,7.77-1.66c2.7-0.38,5.47-0.6,8.23-0.63C72.9,0.93,83.62,4.38,92.02,9.95
				c0.39,0.26,0.78,0.53,1.14,0.8c1.8,1.34,3.39,2.79,5.04,4.26c0.43,0.38,0.76,0.74,1.06,1.06c0.3,0.31,0.55,0.58,0.76,0.79
				c0.41,0.42,0.62,0.65,0.62,0.66C94.5,11.06,83.61,5.11,74.25,3.12c-0.63-0.14-1.28-0.27-1.93-0.41
				C61.64,0.45,49.43,2.08,39.76,6.53c-4.82,2.21-9.3,5.25-12.93,8.77c-0.8,0.78-1.39,1.41-1.77,1.86
				C24.67,17.62,24.49,17.87,24.49,17.87z"/>
		</g>
		<g>
			<path class="st28" d="M23.81,41.12c0,1.32-1.23,2.38-2.75,2.38c-1.52,0-2.75-1.07-2.75-2.38c0-1.32,1.23-2.39,2.75-2.39
				C22.58,38.74,23.81,39.8,23.81,41.12z"/>
			<path class="st19" d="M23.46,41.12c0,1.14-1.07,2.08-2.4,2.08c-1.32,0-2.4-0.93-2.4-2.08c0-1.15,1.07-2.08,2.4-2.08
				C22.38,39.04,23.46,39.97,23.46,41.12z"/>
			<path class="st20" d="M21.33,39.06c0.3,0.07,0.57,0.2,0.81,0.41c0.35,0.31,0.55,0.7,0.58,1.13c0.03,0.53-0.33,0.99-0.81,1.27
				c-0.45,0.26-1.09,0.34-1.6,0.23c-0.3-0.07-0.54-0.2-0.77-0.38c-0.23-0.19-0.34-0.39-0.45-0.65c-0.17-0.36-0.1-0.91,0.17-1.23
				c0.12-0.14,0.25-0.29,0.41-0.4c0.02-0.02,0.04-0.03,0.05-0.05c-0.64,0.38-1.06,1.01-1.06,1.73c0,1.14,1.07,2.08,2.4,2.08
				c1.32,0,2.4-0.93,2.4-2.08C23.46,40.05,22.53,39.17,21.33,39.06z"/>
			<path class="st21" d="M20.95,39.23c-0.37,0-0.65,0.33-0.62,0.63c0.03,0.34,0.37,0.54,0.73,0.54c0.36,0,0.63-0.34,0.61-0.63
				C21.64,39.43,21.31,39.23,20.95,39.23z"/>
			<path class="st21" d="M20.04,40.04c0,0-0.01,0-0.02,0c-0.26-0.08-0.56,0.02-0.61,0.28c-0.05,0.28,0.26,0.52,0.57,0.42
				c0.01,0,0.01,0,0.02,0C20.34,40.63,20.41,40.16,20.04,40.04z"/>
		</g>
		<g>
			<path class="st28" d="M36.9,41.12c0,1.32-1.23,2.38-2.75,2.38c-1.52,0-2.75-1.07-2.75-2.38c0-1.32,1.23-2.39,2.75-2.39
				C35.67,38.74,36.9,39.8,36.9,41.12z"/>
			<path class="st19" d="M36.55,41.12c0,1.14-1.07,2.08-2.4,2.08c-1.32,0-2.39-0.93-2.39-2.08c0-1.15,1.08-2.08,2.39-2.08
				C35.47,39.04,36.55,39.97,36.55,41.12z"/>
			<path class="st20" d="M34.42,39.06c0.3,0.07,0.58,0.2,0.81,0.41c0.35,0.31,0.55,0.7,0.58,1.13c0.03,0.53-0.32,0.99-0.81,1.27
				c-0.44,0.26-1.09,0.34-1.6,0.23c-0.3-0.07-0.55-0.2-0.77-0.38c-0.23-0.19-0.34-0.39-0.45-0.65c-0.16-0.36-0.1-0.91,0.17-1.23
				c0.12-0.14,0.24-0.29,0.41-0.4c0.02-0.02,0.04-0.03,0.05-0.05c-0.64,0.38-1.06,1.01-1.06,1.73c0,1.14,1.08,2.08,2.39,2.08
				c1.33,0,2.4-0.93,2.4-2.08C36.55,40.05,35.62,39.17,34.42,39.06z"/>
			<path class="st21" d="M34.03,39.23c-0.37,0-0.64,0.33-0.61,0.63c0.03,0.34,0.36,0.54,0.72,0.54c0.37,0,0.64-0.34,0.62-0.63
				C34.72,39.43,34.4,39.23,34.03,39.23z"/>
			<path class="st21" d="M33.13,40.04c0,0-0.01,0-0.01,0c-0.27-0.08-0.56,0.02-0.61,0.28c-0.06,0.28,0.26,0.52,0.57,0.42
				c0.01,0,0.01,0,0.01,0C33.43,40.63,33.49,40.16,33.13,40.04z"/>
		</g>
		<g>
			<path class="st28" d="M50.9,41.12c0,1.32-1.23,2.38-2.75,2.38c-1.52,0-2.75-1.07-2.75-2.38c0-1.32,1.23-2.39,2.75-2.39
				C49.67,38.74,50.9,39.8,50.9,41.12z"/>
			<path class="st19" d="M50.54,41.12c0,1.14-1.07,2.08-2.4,2.08c-1.32,0-2.39-0.93-2.39-2.08c0-1.15,1.07-2.08,2.39-2.08
				C49.47,39.04,50.54,39.97,50.54,41.12z"/>
			<path class="st20" d="M48.42,39.06c0.3,0.07,0.57,0.2,0.81,0.41c0.35,0.31,0.55,0.7,0.58,1.13c0.03,0.53-0.33,0.99-0.81,1.27
				c-0.44,0.26-1.09,0.34-1.6,0.23c-0.3-0.07-0.55-0.2-0.77-0.38c-0.23-0.19-0.34-0.39-0.45-0.65c-0.16-0.36-0.1-0.91,0.16-1.23
				c0.12-0.14,0.25-0.29,0.41-0.4c0.02-0.02,0.04-0.03,0.05-0.05c-0.64,0.38-1.06,1.01-1.06,1.73c0,1.14,1.07,2.08,2.39,2.08
				c1.32,0,2.4-0.93,2.4-2.08C50.54,40.05,49.61,39.17,48.42,39.06z"/>
			<path class="st21" d="M48.03,39.23c-0.36,0-0.64,0.33-0.61,0.63c0.03,0.34,0.35,0.54,0.72,0.54c0.36,0,0.64-0.34,0.62-0.63
				C48.73,39.43,48.39,39.23,48.03,39.23z"/>
			<path class="st21" d="M47.13,40.04c0,0-0.01,0-0.01,0c-0.26-0.08-0.56,0.02-0.61,0.28c-0.05,0.28,0.27,0.52,0.58,0.42
				c0,0,0.01,0,0.02,0C47.42,40.63,47.5,40.16,47.13,40.04z"/>
		</g>
		<g>
			<path class="st28" d="M63.99,41.12c0,1.32-1.23,2.38-2.75,2.38c-1.52,0-2.75-1.07-2.75-2.38c0-1.32,1.23-2.39,2.75-2.39
				C62.76,38.74,63.99,39.8,63.99,41.12z"/>
			<path class="st19" d="M63.63,41.12c0,1.14-1.07,2.08-2.39,2.08c-1.32,0-2.4-0.93-2.4-2.08c0-1.15,1.07-2.08,2.4-2.08
				C62.56,39.04,63.63,39.97,63.63,41.12z"/>
			<path class="st20" d="M61.51,39.06c0.3,0.07,0.58,0.2,0.81,0.41c0.36,0.31,0.56,0.7,0.58,1.13c0.03,0.53-0.33,0.99-0.81,1.27
				c-0.44,0.26-1.09,0.34-1.6,0.23c-0.3-0.07-0.55-0.2-0.77-0.38c-0.23-0.19-0.34-0.39-0.45-0.65c-0.16-0.36-0.1-0.91,0.17-1.23
				c0.12-0.14,0.25-0.29,0.41-0.4c0.02-0.02,0.04-0.03,0.06-0.05c-0.64,0.38-1.06,1.01-1.06,1.73c0,1.14,1.07,2.08,2.4,2.08
				c1.32,0,2.39-0.93,2.39-2.08C63.63,40.05,62.7,39.17,61.51,39.06z"/>
			<path class="st21" d="M61.12,39.23c-0.37,0-0.64,0.33-0.61,0.63c0.03,0.34,0.36,0.54,0.72,0.54c0.37,0,0.64-0.34,0.62-0.63
				C61.81,39.43,61.48,39.23,61.12,39.23z"/>
			<path class="st21" d="M60.22,40.04c0,0-0.01,0-0.01,0c-0.27-0.08-0.56,0.02-0.62,0.28c-0.06,0.28,0.27,0.52,0.58,0.42
				c0,0,0.01,0,0.01,0C60.51,40.63,60.59,40.16,60.22,40.04z"/>
		</g>
		<g>
			<path class="st28" d="M76.65,41.12c0,1.32-1.23,2.38-2.75,2.38c-1.52,0-2.75-1.07-2.75-2.38c0-1.32,1.23-2.39,2.75-2.39
				C75.42,38.74,76.65,39.8,76.65,41.12z"/>
			<path class="st19" d="M76.29,41.12c0,1.14-1.07,2.08-2.39,2.08c-1.32,0-2.39-0.93-2.39-2.08c0-1.15,1.07-2.08,2.39-2.08
				C75.22,39.04,76.29,39.97,76.29,41.12z"/>
			<path class="st20" d="M74.17,39.06c0.31,0.07,0.58,0.2,0.81,0.41c0.35,0.31,0.55,0.7,0.58,1.13c0.03,0.53-0.32,0.99-0.81,1.27
				c-0.44,0.26-1.09,0.34-1.6,0.23c-0.3-0.07-0.55-0.2-0.77-0.38c-0.23-0.19-0.34-0.39-0.45-0.65c-0.16-0.36-0.1-0.91,0.17-1.23
				c0.12-0.14,0.25-0.29,0.41-0.4c0.02-0.02,0.03-0.03,0.05-0.05c-0.63,0.38-1.06,1.01-1.06,1.73c0,1.14,1.07,2.08,2.39,2.08
				c1.32,0,2.39-0.93,2.39-2.08C76.29,40.05,75.37,39.17,74.17,39.06z"/>
			<path class="st21" d="M73.79,39.23c-0.37,0-0.65,0.33-0.62,0.63c0.03,0.34,0.36,0.54,0.73,0.54c0.37,0,0.64-0.34,0.61-0.63
				C74.48,39.43,74.15,39.23,73.79,39.23z"/>
			<path class="st21" d="M72.88,40.04c-0.01,0-0.01,0-0.01,0c-0.26-0.08-0.56,0.02-0.62,0.28c-0.06,0.28,0.27,0.52,0.58,0.42
				c0,0,0.01,0,0.01,0C73.18,40.63,73.25,40.16,72.88,40.04z"/>
		</g>
		<g>
			<path class="st28" d="M89.74,41.12c0,1.32-1.23,2.38-2.75,2.38c-1.52,0-2.75-1.07-2.75-2.38c0-1.32,1.23-2.39,2.75-2.39
				C88.51,38.74,89.74,39.8,89.74,41.12z"/>
			<path class="st19" d="M89.39,41.12c0,1.14-1.07,2.08-2.4,2.08c-1.32,0-2.39-0.93-2.39-2.08c0-1.15,1.07-2.08,2.39-2.08
				C88.31,39.04,89.39,39.97,89.39,41.12z"/>
			<path class="st20" d="M87.26,39.06c0.3,0.07,0.58,0.2,0.81,0.41c0.36,0.31,0.55,0.7,0.59,1.13c0.03,0.53-0.32,0.99-0.81,1.27
				c-0.44,0.26-1.09,0.34-1.6,0.23c-0.29-0.07-0.55-0.2-0.77-0.38c-0.23-0.19-0.34-0.39-0.45-0.65c-0.16-0.36-0.1-0.91,0.17-1.23
				c0.12-0.14,0.25-0.29,0.41-0.4c0.01-0.02,0.03-0.03,0.06-0.05c-0.64,0.38-1.06,1.01-1.06,1.73c0,1.14,1.07,2.08,2.39,2.08
				c1.33,0,2.4-0.93,2.4-2.08C89.39,40.05,88.46,39.17,87.26,39.06z"/>
			<path class="st21" d="M86.87,39.23c-0.37,0-0.64,0.33-0.61,0.63c0.03,0.34,0.36,0.54,0.72,0.54c0.37,0,0.64-0.34,0.62-0.63
				C87.57,39.43,87.23,39.23,86.87,39.23z"/>
			<path class="st21" d="M85.96,40.04C85.96,40.04,85.96,40.04,85.96,40.04c-0.27-0.09-0.57,0.02-0.62,0.27
				c-0.06,0.28,0.27,0.52,0.58,0.42c0,0,0.01,0,0.01,0C86.26,40.63,86.34,40.16,85.96,40.04z"/>
		</g>
		<g>
			<path class="st28" d="M103.74,41.12c0,1.32-1.23,2.38-2.75,2.38c-1.52,0-2.75-1.07-2.75-2.38c0-1.32,1.23-2.39,2.75-2.39
				C102.51,38.74,103.74,39.8,103.74,41.12z"/>
			<path class="st19" d="M103.38,41.12c0,1.14-1.07,2.08-2.39,2.08c-1.32,0-2.4-0.93-2.4-2.08c0-1.15,1.08-2.08,2.4-2.08
				C102.31,39.04,103.38,39.97,103.38,41.12z"/>
			<path class="st20" d="M101.26,39.06c0.3,0.07,0.57,0.2,0.81,0.41c0.36,0.31,0.55,0.7,0.58,1.13c0.03,0.53-0.32,0.99-0.81,1.27
				c-0.45,0.26-1.09,0.34-1.6,0.23c-0.29-0.07-0.54-0.2-0.76-0.38c-0.24-0.19-0.34-0.39-0.45-0.65c-0.16-0.36-0.1-0.91,0.17-1.23
				c0.12-0.14,0.24-0.29,0.41-0.4c0.02-0.02,0.04-0.03,0.05-0.05c-0.64,0.38-1.06,1.01-1.06,1.73c0,1.14,1.08,2.08,2.4,2.08
				c1.32,0,2.39-0.93,2.39-2.08C103.38,40.05,102.46,39.17,101.26,39.06z"/>
			<path class="st21" d="M100.87,39.23c-0.37,0-0.64,0.33-0.61,0.63c0.03,0.34,0.35,0.54,0.72,0.54s0.64-0.34,0.61-0.63
				C101.56,39.43,101.24,39.23,100.87,39.23z"/>
			<path class="st21" d="M99.97,40.04c0,0-0.01,0-0.02,0c-0.26-0.08-0.56,0.02-0.61,0.28c-0.06,0.28,0.26,0.52,0.57,0.42
				c0,0,0.01,0,0.02,0C100.26,40.63,100.33,40.16,99.97,40.04z"/>
		</g>
		<g>
			<g>
				<polygon class="st29" points="41.9,17.85 41.85,17.85 41.85,17.74 41.8,17.74 41.8,17.58 41.72,17.58 41.72,17.47 31.07,17.47 
					31.07,19.86 31.15,19.86 31.15,19.98 31.2,19.98 31.2,20.14 31.25,20.14 31.25,20.25 31.33,20.25 31.33,20.39 32.24,20.39 
					32.24,19.61 34.8,19.61 34.8,29.32 34.21,29.32 34.21,30.04 34.29,30.04 34.29,30.15 34.34,30.15 34.34,30.31 34.4,30.31 
					34.4,30.42 34.47,30.42 34.47,30.56 38.83,30.56 38.83,29.85 38.76,29.85 38.76,29.71 38.71,29.71 38.71,29.59 38.65,29.59 
					38.65,29.44 38.58,29.44 38.58,29.32 38.25,29.32 38.25,19.61 40.81,19.61 40.81,19.86 40.88,19.86 40.88,19.98 40.93,19.98 
					40.93,20.14 40.99,20.14 40.99,20.25 41.06,20.25 41.06,20.39 41.98,20.39 41.98,17.99 41.9,17.99 				"/>
				<polygon class="st29" points="50.31,17.85 50.25,17.85 50.25,17.74 50.21,17.74 50.21,17.58 50.13,17.58 50.13,17.47 
					48.86,17.47 46.9,17.47 46.25,17.47 44.31,17.47 43.04,17.47 43.04,19.86 43.12,19.86 43.12,19.98 43.17,19.98 43.17,20.14 
					43.23,20.14 43.23,20.25 43.3,20.25 43.3,20.39 44.21,20.39 44.21,19.61 44.57,19.61 44.99,19.61 44.99,28.42 44.31,28.42 
					44.15,28.42 44.15,28.16 44.07,28.16 44.07,28.03 44.02,28.03 44.02,27.91 43.97,27.91 43.97,27.75 43.89,27.75 43.89,27.64 
					42.97,27.64 42.97,30.04 43.05,30.04 43.05,30.15 43.1,30.15 43.1,30.31 43.16,30.31 43.16,30.42 43.23,30.42 43.23,30.56 
					44.57,30.56 46.44,30.56 47.09,30.56 49.13,30.56 50.32,30.56 50.32,28.16 50.24,28.16 50.24,28.03 50.2,28.03 50.2,27.91 
					50.14,27.91 50.14,27.75 50.06,27.75 50.06,27.64 49.14,27.64 49.14,28.42 48.86,28.42 48.44,28.42 48.44,19.61 49.13,19.61 
					49.22,19.61 49.22,19.86 49.29,19.86 49.29,19.98 49.35,19.98 49.35,20.14 49.4,20.14 49.4,20.25 49.47,20.25 49.47,20.39 
					50.39,20.39 50.39,17.99 50.31,17.99 				"/>
				<polygon class="st29" points="82.69,17.85 82.63,17.85 82.63,17.74 82.58,17.74 82.58,17.58 82.5,17.58 82.5,17.47 74.71,17.47 
					74.71,18.36 74.79,18.36 74.79,18.48 74.84,18.48 74.84,18.63 74.89,18.63 74.89,18.75 74.97,18.75 74.97,18.88 75.39,18.88 
					75.39,29.14 74.71,29.14 74.71,30.04 74.79,30.04 74.79,30.15 74.84,30.15 74.84,30.31 74.89,30.31 74.89,30.42 74.97,30.42 
					74.97,30.56 82.77,30.56 82.77,27.74 82.69,27.74 82.69,27.61 82.63,27.61 82.63,27.49 82.58,27.49 82.58,27.34 82.5,27.34 
					82.5,27.22 81.63,27.22 81.63,28.24 78.84,28.24 78.84,25.55 81.7,25.55 81.7,25.6 81.75,25.6 81.75,25.76 81.81,25.76 
					81.81,25.87 81.89,25.87 81.89,26 82.77,26 82.77,22.69 82.69,22.69 82.69,22.55 82.63,22.55 82.63,22.44 82.58,22.44 
					82.58,22.28 82.5,22.28 82.5,22.16 81.63,22.16 81.63,22.64 78.84,22.64 78.84,19.61 81.63,19.61 81.63,20.27 81.7,20.27 
					81.7,20.38 81.75,20.38 81.75,20.54 81.81,20.54 81.81,20.65 81.89,20.65 81.89,20.79 82.77,20.79 82.77,17.99 82.69,17.99 				
					"/>
				<polygon class="st29" points="74.25,29.52 74.2,29.52 74.2,29.4 74.15,29.4 74.15,29.25 74.07,29.25 74.07,29.13 73.11,29.13 
					72.53,28.42 68.53,23.55 72.92,18.89 73.49,18.89 73.49,17.99 73.41,17.99 73.41,17.85 73.36,17.85 73.36,17.74 73.31,17.74 
					73.31,17.58 73.23,17.58 73.23,17.47 72.82,17.47 69.88,17.47 68.81,17.47 68.81,18.37 68.9,18.37 68.9,18.49 68.95,18.49 
					68.95,18.52 66.18,21.64 66.18,18.89 66.89,18.89 66.89,17.99 66.82,17.99 66.82,17.85 66.77,17.85 66.77,17.74 66.71,17.74 
					66.71,17.58 66.63,17.58 66.63,17.47 65.92,17.47 62.05,17.47 62.05,18.36 62.05,18.37 62.13,18.37 62.13,18.48 62.13,18.49 
					62.18,18.49 62.18,18.63 62.18,18.65 62.23,18.65 62.23,18.75 62.23,18.76 62.31,18.76 62.31,18.88 62.31,18.89 62.73,18.89 
					62.73,29.13 62.05,29.13 62.05,29.14 62.05,30.04 62.13,30.04 62.13,30.15 62.18,30.15 62.18,30.31 62.23,30.31 62.23,30.42 
					62.31,30.42 62.31,30.56 66.18,30.56 66.89,30.56 66.89,29.65 66.82,29.65 66.82,29.52 66.77,29.52 66.77,29.4 66.71,29.4 
					66.71,29.25 66.63,29.25 66.63,29.13 66.18,29.13 66.18,25.34 69.54,29.13 69.34,29.13 69.34,30.04 69.42,30.04 69.42,30.15 
					69.47,30.15 69.47,30.31 69.52,30.31 69.52,30.42 69.6,30.42 69.6,30.56 70.8,30.56 73.25,30.56 74.09,30.56 74.33,30.56 
					74.33,29.65 74.25,29.65 				"/>
				<polygon class="st29" points="95.09,17.99 95.09,17.85 95.04,17.85 95.04,17.74 94.99,17.74 94.99,17.58 94.9,17.58 94.9,17.47 
					84.26,17.47 84.26,19.86 84.34,19.86 84.34,19.98 84.39,19.98 84.39,20.14 84.44,20.14 84.44,20.25 84.53,20.25 84.53,20.39 
					85.43,20.39 85.43,19.61 87.99,19.61 87.99,29.32 87.4,29.32 87.4,30.04 87.48,30.04 87.48,30.15 87.54,30.15 87.54,30.31 
					87.58,30.31 87.58,30.42 87.66,30.42 87.66,30.56 92.02,30.56 92.02,29.85 91.94,29.85 91.94,29.71 91.9,29.71 91.9,29.59 
					91.84,29.59 91.84,29.44 91.76,29.44 91.76,29.32 91.44,29.32 91.44,19.61 93.99,19.61 93.99,19.86 94.07,19.86 94.07,19.98 
					94.12,19.98 94.12,20.14 94.18,20.14 94.18,20.25 94.25,20.25 94.25,20.39 95.17,20.39 95.17,17.99 				"/>
				<path class="st29" d="M58.28,22.26l3.04-1.5l-0.09-0.13l0.01,0l-0.07-0.1l0.02-0.01l-0.1-0.14l0.04-0.02l-0.52-0.78h0
					l-0.08-0.11l-0.36,0.18c-0.11-0.2-0.23-0.4-0.37-0.6c-0.63-0.95-1.63-1.87-3.38-1.77c-1.53,0.09-2.94,0.78-3.97,1.96
					c-1.03,1.18-1.6,2.73-1.64,4.5c-0.02,1.21,0.23,2.36,0.74,3.35c0.03,0.05,0.05,0.11,0.07,0.16c0.08,0.18,0.17,0.35,0.27,0.52
					c0.34,0.63,0.78,1.19,1.31,1.65c0.96,0.83,2.12,1.3,3.28,1.3c0,0,0.02,0,0.04,0c1.38-0.01,2.46-0.79,3.22-1.54l0.3,0.47
					l0.91-0.44l-0.09-0.13l0,0l-0.07-0.1l0.02-0.01l-0.09-0.14l0.04-0.02l-1.88-2.92h-0.01l-0.07-0.11L57.9,26.2l0.17,0.25
					l-0.04,0.02l0.07,0.11l-0.02,0.01l0.06,0.1c-0.64,0.52-1.4,0.97-1.91,0.97c-0.36,0.01-0.82-0.2-1.21-0.54
					c-0.19-0.17-0.36-0.36-0.51-0.57c-0.07-0.11-0.15-0.22-0.2-0.34c-0.22-0.57-0.32-1.21-0.31-1.89c0.06-2.5,1.49-3.89,2.88-3.97
					c0.42-0.02,0.78,0.17,1.07,0.41l-0.45,0.22l0.17,0.26l-0.04,0.02l0.07,0.11l-0.02,0.01l0.09,0.13l-0.01,0L58.28,22.26z"/>
			</g>
			<g>
				<path class="st30" d="M30.87,17.32h10.65v2.4H40.6v-0.78h-2.82v10.24h0.59v0.71h-4.36v-0.71h0.59V18.94h-2.81v0.78h-0.91V17.32z
					"/>
				<path class="st30" d="M84.06,17.32h10.65v2.4h-0.92v-0.78h-2.81v10.24h0.59v0.71H87.2v-0.71h0.59V18.94h-2.82v0.78h-0.92V17.32z
					"/>
				<polygon class="st30" points="49.93,19.72 49.93,17.32 48.66,17.32 46.69,17.32 46.04,17.32 44.11,17.32 42.84,17.32 
					42.84,19.72 43.76,19.72 43.76,18.94 44.11,18.94 44.8,18.94 44.8,28.27 44.11,28.27 43.69,28.27 43.69,27.49 42.78,27.49 
					42.78,29.89 44.11,29.89 45.98,29.89 46.63,29.89 48.66,29.89 49.86,29.89 49.86,27.49 48.95,27.49 48.95,28.27 48.66,28.27 
					47.98,28.27 47.98,18.94 48.66,18.94 49.01,18.94 49.01,19.72 				"/>
				<polygon class="st30" points="82.31,20.12 82.31,17.32 74.51,17.32 74.51,18.21 75.19,18.21 75.19,28.99 74.51,28.99 
					74.51,29.89 82.31,29.89 82.31,27.07 81.42,27.07 81.42,28.09 78.38,28.09 78.38,24.88 81.42,24.88 81.42,25.33 82.31,25.33 
					82.31,22.01 81.42,22.01 81.42,22.49 78.38,22.49 78.38,18.94 81.42,18.94 81.42,20.12 				"/>
				<polygon class="st30" points="72.9,28.98 72.33,28.27 67.98,22.98 72.46,18.22 73.03,18.22 73.03,17.32 72.62,17.32 
					69.68,17.32 68.62,17.32 68.62,18.22 68.88,18.22 65.72,21.78 65.72,18.22 66.43,18.22 66.43,17.32 65.72,17.32 61.85,17.32 
					61.85,18.21 61.85,18.22 62.53,18.22 62.53,28.98 61.85,28.98 61.85,28.99 61.85,29.89 65.72,29.89 66.43,29.89 66.43,28.98 
					65.72,28.98 65.72,24.68 69.54,28.98 69.14,28.98 69.14,29.89 70.34,29.89 72.79,29.89 73.63,29.89 73.86,29.89 73.86,28.98 
									"/>
				<path class="st30" d="M57.7,26.04l0.29,0.45c-0.65,0.53-1.44,1-1.95,1c-0.36,0-0.82-0.2-1.21-0.55
					c-0.85-0.74-1.32-1.95-1.29-3.32c0.06-2.51,1.49-3.9,2.88-3.98c0.65-0.04,1.19,0.46,1.5,0.85l-0.62,0.31l0.51,0.79l3.04-1.5
					l-0.52-0.79l-0.37,0.19c-0.6-1.11-1.61-2.5-3.75-2.38c-1.53,0.09-2.94,0.78-3.97,1.96c-1.03,1.17-1.6,2.73-1.64,4.5
					c-0.05,2.05,0.73,3.93,2.14,5.16c0.96,0.84,2.11,1.3,3.27,1.29c0.01,0,0.03,0,0.04,0c1.39-0.01,2.46-0.78,3.22-1.54l0.3,0.47
					l0.91-0.44L58.6,25.6L57.7,26.04z"/>
			</g>
			<g>
				<path class="st20" d="M31.25,19.42c-0.14-0.19-0.26-0.37-0.38-0.56v0.86h0.6C31.4,19.62,31.32,19.52,31.25,19.42z"/>
				<path class="st20" d="M37.79,24.2c-0.06-0.03-0.13-0.05-0.19-0.08c-1.05-0.45-2.05-0.98-2.99-1.6v6.66h-0.59v0.71h4.36v-0.71
					h-0.59V24.2z"/>
				<path class="st20" d="M90.98,22.03c-0.12,0.06-0.23,0.12-0.35,0.19c-0.93,0.49-1.88,0.94-2.84,1.35v5.62H87.2v0.71h4.36v-0.71
					h-0.59V22.03z"/>
				<path class="st20" d="M48.95,28.27h-0.97V26.9c-1.07-0.15-2.14-0.33-3.19-0.55v1.92h-1.11v-0.78h-0.91v2.4h7.08v-2.4h-0.91
					V28.27z"/>
				<path class="st20" d="M81.42,28.09h-3.05v-1.74c-1.05,0.2-2.12,0.37-3.19,0.52v2.13h-0.68v0.89h7.8v-2.81h-0.88V28.09z"/>
				<path class="st20" d="M65.72,27.57c-1.06,0.03-2.13,0.04-3.19,0.04v1.38h-0.68v0.9h4.58v-0.9h-0.71V27.57z"/>
				<path class="st20" d="M72.33,28.27l-0.83-1.01c-1.1,0.09-2.2,0.16-3.3,0.21l1.34,1.51h-0.4v0.9h4.72v-0.9H72.9L72.33,28.27z"/>
				<path class="st20" d="M56.1,27.53c-1.52-0.03-3.04-0.11-4.55-0.23c0.32,0.54,0.72,1.03,1.19,1.44c0.96,0.84,2.11,1.3,3.27,1.29
					c0.01,0,0.03,0,0.04,0c1.39-0.01,2.46-0.78,3.22-1.54l0.3,0.47l0.91-0.44L59.9,27.6C58.63,27.58,57.36,27.56,56.1,27.53z"/>
			</g>
			<polygon class="st31" points="31.01,19.29 31.01,17.42 41.25,17.51 31.29,17.69 			"/>
			<polygon class="st31" points="43.03,19.38 43.03,17.51 49.67,17.54 43.3,17.78 			"/>
			<polygon class="st31" points="62.02,18.16 62.02,17.47 66.02,17.52 62.25,17.66 			"/>
			<polygon class="st31" points="68.76,18.09 68.76,17.4 72.75,17.45 68.98,17.59 			"/>
			<path class="st31" d="M50.89,24.33c0,0-0.35-3.65,2.3-5.8c2.65-2.14,5.54-1.18,6.44,0.88c0,0-2-3.34-6.02-0.85
				C52.38,19.32,51.14,21.59,50.89,24.33z"/>
			<polygon class="st31" points="62.72,18.27 62.72,27.01 63.03,18.24 			"/>
			<polygon class="st31" points="74.76,18.16 74.76,17.47 78.76,17.52 74.99,17.66 			"/>
			<polygon class="st31" points="75.46,18.27 75.46,27.01 75.77,18.24 			"/>
			<polygon class="st31" points="84.45,18.18 84.45,17.49 88.44,17.55 84.67,17.68 			"/>
			<polygon class="st31" points="87.99,18.95 87.99,27.69 88.3,18.92 			"/>
		</g>
		<path class="st32" d="M33.35,14.64c0,0,9.81-9.96,28.4-9.78c18.59,0.18,28.4,7.6,30.7,10.87C92.45,15.73,62.59,2.33,33.35,14.64z"
			/>
	</g>
</g>
</svg>
